<svg width="212" height="332" viewBox="0 0 212 332" fill="none" xmlns="http://www.w3.org/2000/svg">
<g clip-path="url(#clip0_105_2)">
<path d="M149.551 224.472C151.099 224.933 152.481 225.603 154.49 226.272L161.019 232.802C162.244 236.438 162.386 240.352 161.427 244.068C160.469 247.783 158.451 251.14 155.62 253.73C151.099 249.209 146.83 244.689 142.77 239.75V237.699C142.77 237.699 143.23 237.28 143.691 237.029C150.095 234.602 148.714 229.202 149.551 224.472Z" fill="#F7FAFB"/>
<path d="M196.052 161.605C196.659 163.654 196.816 165.81 196.513 167.925C191.452 170.313 186.166 172.192 180.733 173.534C179.812 165.163 178.682 157.545 178.264 149.885C180.063 150.346 181.403 150.806 182.742 151.225C187.221 154.615 191.406 158.006 196.052 161.605Z" fill="#428F42"/>
<path d="M124.437 317.309C123.3 315.545 122.597 313.537 122.386 311.449C133.897 311.449 145.156 311.909 156.415 312.119C159.596 318.439 155.745 320.908 150.806 320.699C142.645 320.211 134.514 319.303 126.446 317.978C126.084 318.012 125.718 317.969 125.372 317.854C125.026 317.739 124.708 317.553 124.437 317.309Z" fill="#228076"/>
<path d="M110.206 311.742C116.066 315.593 112.006 316.681 108.825 316.932C99.1563 317.392 89.4459 317.141 79.1075 317.141C76.1776 316.011 73.2477 314.881 76.5962 311.281C87.6461 311.449 98.696 311.742 110.206 311.742Z" fill="#1B7C71"/>
<path d="M158.885 15.5703C159.272 14.8703 159.799 14.2576 160.433 13.7705L160.894 14.231C160.419 14.8137 159.886 15.3465 159.303 15.8214C158.884 15.8214 158.885 15.5703 158.885 15.5703Z" fill="#316B35"/>
<path d="M164.744 199.443C161.499 201.321 158.004 202.731 154.364 203.628C157.043 199.819 160.684 196.638 163.154 192.829C179.352 167.716 171.274 140.761 145.574 132.892C150.349 132.234 155.212 132.685 159.785 134.209C164.358 135.734 168.518 138.29 171.943 141.682C172.404 141.891 172.404 141.891 172.404 142.142C172.404 142.393 173.283 143.021 173.492 143.481C174.873 145.491 176.003 147.29 177.678 149.802C178.808 157.88 179.938 165.581 180.608 174.329C177.008 182.24 173.408 188.769 169.809 195.55C168.344 196.513 166.544 197.894 164.744 199.443Z" fill="#07AB9B"/>
<path d="M170.479 195.425C173.408 188.644 177.008 181.905 180.608 174.497C185.798 172.236 190.779 170.311 196.387 168.218C197.852 185.923 189.272 194.546 170.479 195.425Z" fill="#346635"/>
<path d="M142.645 239.582C142.435 239.582 141.975 238.913 142.184 237.992C142.645 238.243 142.645 238.452 142.645 239.582Z" fill="#EAEAEC"/>
<path d="M173.492 142.896C173.283 142.896 173.074 142.686 172.404 142.017C172.613 142.017 173.074 142.226 173.492 142.896Z" fill="#C9E5E3"/>
<path d="M145.784 206.223C146.813 205.593 147.972 205.206 149.174 205.093C148.096 205.611 146.957 205.991 145.784 206.223Z" fill="#07AB9B"/>
<path d="M150.095 205.303C150.989 204.522 152.071 203.988 153.234 203.754C152.375 204.585 151.277 205.126 150.095 205.303Z" fill="#07AB9B"/>
<path d="M200.322 23.8997C199.192 21.4302 197.852 18.9606 196.513 15.8214C193.332 10.6313 190.653 6.36203 187.053 0.251083C185.412 3.37628 184.013 6.62266 182.868 9.96165C178.682 28.42 174.999 47.1297 170.018 65.3788C168.34 72.7514 164.678 79.525 159.429 84.9673C149.75 92.9977 139.449 100.247 128.623 106.649C120.252 108.909 112.383 111.378 104.514 113.178C100.328 114.308 95.2639 113.638 95.7243 120.419C95.7243 120.88 93.6733 121.549 94.1337 121.298C92.1247 116.108 90.283 111.629 88.4832 106.9C86.6834 102.17 83.3349 96.5195 81.4932 91.1201C76.5542 75.5497 81.4933 61.821 90.9946 48.762C108.722 28.4751 131.385 13.1068 156.792 4.14377C164.615 1.71843 172.718 0.311646 180.901 -0.0418101C184.855 -0.2733 188.804 0.490388 192.387 2.17948C195.97 3.86857 199.072 6.42913 201.41 9.62686C203.419 14.817 206.14 19.7978 200.489 23.8159M157.922 15.4447C156.453 15.9671 155.049 16.6553 153.736 17.4958C133.614 33.495 117.791 54.2517 107.695 77.8936C105.435 83.0419 103.175 88.6924 100.956 93.8826L102.505 94.5521C103.156 93.1041 103.911 91.7052 104.765 90.3666C114.015 74.5869 122.345 58.3888 132.725 43.4882C140.133 33.1498 150.304 24.5694 159.764 15.11C160.178 14.697 160.556 14.2488 160.894 13.7705L160.433 13.3102C159.907 14.279 159.019 15.0009 157.964 15.3192M97.3147 52.7383C96.8961 57.2587 98.9053 58.8073 103.175 58.598C106.834 58.2377 110.307 56.8068 113.158 54.4842C116.009 52.1617 118.112 49.0503 119.205 45.5391C119.658 42.6222 119.017 39.641 117.406 37.1679C116.196 36.5304 114.862 36.163 113.496 36.0907C112.13 36.0185 110.765 36.2431 109.495 36.7493C102.505 39.0095 99.1145 44.8694 97.3147 52.7383Z" fill="#408F42"/>
<path d="M87.8972 106.858C90.2116 111.457 92.2386 116.196 93.9663 121.047C93.5059 121.256 95.7661 120.586 95.5569 120.126C95.3057 113.597 100.287 114.057 104.347 112.927C112.215 110.918 120.126 108.741 128.874 106.607C135.864 108.658 141.975 110.457 147.835 112.467C147.832 112.857 147.746 113.242 147.584 113.597C137.232 121.263 126.397 128.253 115.145 134.524C107.188 138.422 98.5404 140.712 89.6971 141.263C84.1508 141.964 78.5365 140.662 73.864 137.593C69.1914 134.524 65.7671 129.889 64.2068 124.521C62.7167 127.343 60.9049 129.984 58.8075 132.39C56.3093 132.24 53.8217 131.946 51.3572 131.511C57.4681 119.54 68.518 114.141 80.2376 109.411C82.8363 108.703 85.3934 107.85 87.8972 106.858Z" fill="#FDFEFD"/>
<path d="M85.1764 267.5C79.3166 260.092 80.9909 251.762 82.4558 242.387C82.7519 240.914 83.2893 239.499 84.0463 238.201C84.9942 238.199 85.9282 238.429 86.7669 238.871C87.4366 241.34 88.1064 243.056 88.7761 245.652C90.867 249.09 93.5444 252.136 96.6867 254.65C109.495 261.85 121.8 252.39 122.135 235.732C125.525 233.472 128.204 231.211 132.055 228.533C133.185 233.471 134.064 237.532 134.985 242.052C135.906 246.572 129.334 249.042 132.515 253.981C133.814 256.805 134.499 259.872 134.524 262.98C128.874 269.761 121.214 268.63 113.597 269.76C110.918 269.97 108.657 270.43 105.937 270.639C98.6958 269.551 91.957 268.63 85.1764 267.5Z" fill="#FCFDFC"/>
<path d="M6.52949 222.673C4.52041 221.333 2.72062 219.952 0 218.487C2.46949 216.897 4.18563 216.018 6.06914 214.887C2.26026 210.367 -5.19011 204.968 8.12003 203.587C6.0691 200.238 4.52053 197.308 2.72073 194.378C3.13928 193.708 3.5996 193.248 4.06001 192.578C8.58044 194.378 12.8498 196.387 17.3284 198.187C18.4585 195.718 19.3793 192.997 20.7187 190.067C25.9088 194.797 30.4292 198.857 35.3682 203.838C34.2381 212.209 32.8987 220.287 31.1826 227.947C22.5185 226.063 14.6495 224.473 6.52949 222.673Z" fill="#177A70"/>
<path d="M31.5593 227.612C32.8987 219.952 34.2381 212.292 35.7449 203.963C37.388 203.352 39.1485 203.123 40.8932 203.293C49.2644 205.093 56.4636 206.893 63.9139 209.153C69.983 215.934 76.0521 222.003 76.4706 231.253C61.0677 230.123 46.2088 228.993 31.5593 227.612Z" fill="#FDFEFD"/>
<path d="M76.8472 311.24C77.0564 310.988 77.0564 310.779 77.3075 310.779C90.8269 304.25 86.5158 292.53 85.6787 281.941C85.4437 278.484 85.4437 275.016 85.6787 271.56C87.6497 272.182 89.4828 273.176 91.0781 274.49C97.1472 279.011 103.258 283.74 109.327 288.679C109.309 289.067 109.38 289.454 109.537 289.809C109.794 290.434 110.102 291.036 110.457 291.609C111.429 296.305 112.1 301.059 112.466 305.84C112.359 308.105 111.588 310.289 110.248 312.118C98.6958 311.742 87.646 311.449 76.8472 311.24Z" fill="#FCFDFC"/>
<path d="M51.1477 131.762C53.7916 131.851 56.4237 132.159 59.0166 132.683C59.7282 132.892 59.7282 133.562 59.2678 133.562C56.3379 135.613 53.6173 137.413 50.6874 139.212C47.982 139.503 45.3321 140.18 42.8185 141.221C42.1488 141.682 43.4881 144.863 43.6974 147.332C42.9984 149.011 42.099 150.599 41.0187 152.062C40.349 151.602 39.6374 151.141 39.6374 151.392C31.2662 160.852 33.108 181.361 43.4882 189.9C43.5523 188.607 43.7772 187.328 44.1579 186.091C50.0177 190.611 55.4171 195.09 60.9002 199.82C59.5845 200.445 58.1665 200.828 56.7146 200.95C45.2461 201.87 39.5956 194.629 33.5265 186.97C31.057 178.18 28.5456 169.851 26.2854 161.521C31.3081 149.425 36.0378 136.575 51.1477 131.762Z" fill="#1BAC9D"/>
<path d="M106.146 270.43C107.486 275.871 108.406 281.48 109.285 287.591C103.216 283.406 97.1053 278.801 91.0362 274.281C89.297 273.057 87.4948 271.925 85.6369 270.891C85.2443 270.056 85.0851 269.13 85.1765 268.212C91.9571 268.63 98.6959 269.551 106.146 270.43Z" fill="#D1E7E5"/>
<path d="M33.1079 187.053C32.6894 187.305 31.9778 187.305 30.8896 187.053C26.118 179.185 22.0999 171.483 25.4484 161.94C28.3783 169.934 30.6384 178.264 33.1079 187.053Z" fill="#3A6835"/>
<path d="M162.107 122.637C165.724 128.619 169.035 134.779 172.027 141.096C168.444 137.815 164.183 135.365 159.546 133.918C154.909 132.471 150.01 132.064 145.198 132.725C139.488 134.099 133.891 135.903 128.455 138.124C120.377 141.975 112.927 146.914 105.016 150.681C93.0871 156.541 86.5577 154.866 76.8471 145.951C71.6989 141.18 65.5879 137.58 60.1048 133.394C60.0346 133.251 59.998 133.094 59.998 132.934C59.998 132.774 60.0346 132.617 60.1048 132.474C61.4442 130.004 62.5743 127.995 64.8346 124.395C66.4308 129.733 69.8569 134.337 74.511 137.399C79.1651 140.461 84.7495 141.785 90.2828 141.138C99.1279 140.597 107.778 138.307 115.731 134.399C126.916 128.222 137.758 121.446 148.211 114.099C153.02 116.647 157.662 119.499 162.107 122.637Z" fill="#C9E5E3"/>
<path d="M97.1054 52.236C97.5698 48.8222 98.9189 45.5892 101.019 42.8579C103.119 40.1266 105.896 37.9918 109.076 36.6656C110.343 36.1693 111.703 35.9535 113.061 36.033C114.42 36.1125 115.745 36.4854 116.945 37.1261C117.859 38.2941 118.496 39.6544 118.808 41.1045C119.12 42.5546 119.098 44.0567 118.745 45.4973C117.671 49.0158 115.58 52.1377 112.735 54.4692C109.889 56.8007 106.417 58.2373 102.756 58.598C98.6959 58.8492 96.6868 57.2587 97.1054 52.236Z" fill="#65B55C"/>
<path d="M158.885 15.8214C149.844 25.0297 139.715 33.6102 132.515 43.9904C122.135 58.8492 113.806 75.0893 104.556 90.827C103.914 92.2798 103.158 93.6793 102.295 95.0126C101.835 94.8033 101.165 94.594 100.747 94.3429C102.965 88.9435 104.932 83.5441 107.486 78.354C117.562 54.7004 133.388 33.9391 153.527 17.9561C154.984 17.0332 156.581 16.3545 158.257 15.947C158.884 15.5703 158.885 15.8214 158.885 15.8214Z" fill="#316B35"/>
<path d="M156.164 311.742C145.114 311.742 133.855 311.533 122.135 311.072C120.22 303.05 118.822 294.913 117.95 286.712C125.149 281.103 131.888 276.374 138.668 271.644C139.792 274.731 140.701 277.891 141.389 281.103C143.926 292.305 148.979 302.782 156.164 311.742Z" fill="#FDFEFD"/>
<path d="M143.105 237.113C142.764 237.285 142.453 237.511 142.184 237.783C142.081 238.634 142.242 239.496 142.645 240.252C146.83 244.773 151.016 249.042 155.201 253.981C153.507 257.104 150.887 259.625 147.702 261.199C144.517 262.773 140.922 263.322 137.413 262.771C136.596 262.637 135.77 262.567 134.943 262.561C134.677 259.594 133.913 256.694 132.683 253.981C129.544 249.042 136.534 246.782 135.403 241.843C136.95 239.671 138.765 237.702 140.803 235.983C141.656 236.152 142.449 236.542 143.105 237.113Z" fill="#177A70"/>
<path d="M134.734 262.77C135.445 262.352 135.864 262.561 136.785 262.77C137.626 265.575 138.228 268.445 138.585 271.351C131.804 276.541 125.065 281.48 117.866 286.461C116.485 281.271 115.355 276.081 114.266 270.221C121.214 268.421 129.125 269.551 134.734 262.77Z" fill="#D1E7E5"/>
<path d="M140.384 235.983C138.77 237.812 137.037 239.532 135.194 241.131C133.8 236.936 132.668 232.659 131.804 228.323C128.604 230.899 125.219 233.236 121.675 235.313C120.839 234.503 120.22 233.495 119.875 232.383C118.075 229.663 116.275 227.193 114.936 224.682C119.415 222.882 123.726 221.082 127.995 219.282V218.822C127.995 218.822 127.995 219.534 127.325 219.282C115.815 218.613 105.016 218.404 94.1755 217.483C82.707 212.083 70.7363 208.484 62.1978 198.773C66.0066 195.843 69.648 193.164 73.2476 190.695C76.8666 187.489 81.4668 185.606 86.2952 185.355C91.1236 185.104 95.8942 186.5 99.826 189.314C104.012 192.034 107.946 194.713 112.383 197.225C122.512 203.294 133.101 208.233 146.202 206.223C147.487 205.985 148.759 205.677 150.011 205.303L150.472 205.554C151.742 205.2 152.954 204.664 154.071 203.963L154.741 204.214C158.592 202.833 161.731 201.284 164.912 200.029C160.391 208.609 152.062 211.539 143.984 214.929C142.014 216.038 140.314 217.567 139.003 219.408C138.409 222.548 137.583 225.64 136.534 228.658C134.943 232.844 135.864 235.439 140.719 236.108M97.6914 206.558L113.89 204.549C113.89 203.88 113.89 202.959 113.89 202.289C106.9 202.959 99.9098 203.628 91.5805 204.549C93.757 205.303 94.8871 205.763 97.3566 206.433L97.6914 206.558Z" fill="#C8E2E0"/>
<path d="M140.845 235.732C135.654 235.313 134.524 232.593 136.115 228.323C136.994 225.603 137.915 222.673 138.794 219.534C142.401 220.764 145.878 222.348 149.174 224.263C148.713 229.202 150.095 234.602 143.523 236.82C142.593 236.557 141.695 236.192 140.845 235.732Z" fill="#EAEAEC"/>
<path d="M63.9976 209.153C64.2068 208.484 64.458 208.232 65.337 208.023C73.457 210.953 80.9073 214.092 88.1065 217.483C90.1156 220.203 92.292 222.673 94.4267 225.393C91.706 229.872 89.2366 234.183 86.7671 238.452C85.925 238.469 85.0834 238.399 84.2557 238.243C84.2557 234.058 83.8372 230.793 77.7262 231.462C76.1776 222.003 70.0248 215.934 63.9976 209.153Z" fill="#C9E5E3"/>
<path d="M120.252 232.802C120.67 233.472 120.921 234.183 121.591 235.313C121.591 252.055 109.62 261.64 96.8123 254.441C93.7027 252.075 91.2173 248.986 89.5713 245.442C90.5943 245.095 91.6726 244.938 92.7522 244.982C92.9615 244.982 93.1708 245.652 93.4219 245.903C93.8154 246.462 94.2642 246.981 94.7614 247.451V247.912C98.9469 252.432 103.551 253.311 108.071 248.833H108.532C109.327 248.469 110.073 248.005 110.75 247.451L111.001 247.242C111.477 246.979 111.869 246.588 112.131 246.112L112.341 245.903C112.861 245.138 113.243 244.288 113.471 243.391L113.931 243.182C115.061 239.582 115.48 236.192 116.61 232.593C117.802 232.88 119.035 232.951 120.252 232.802Z" fill="#3E8043"/>
<path d="M92.6269 245.191H89.4459C88.2604 243.26 87.4244 241.134 86.9763 238.913C89.2663 234.212 91.9109 229.693 94.8871 225.393C95.8147 225.014 96.8179 224.857 97.8171 224.933C102.296 225.603 107.276 222.673 109.076 228.072C103.216 225.603 98.0263 225.603 93.9663 230.332C91.9841 232.228 90.7562 234.779 90.5099 237.511C90.2637 240.243 91.0158 242.971 92.6269 245.191Z" fill="#5CAA5B"/>
<path d="M109.285 289.391C109.489 289.422 109.673 289.531 109.798 289.695C109.923 289.859 109.979 290.065 109.955 290.27C109.746 290.521 109.495 290.061 109.285 289.391Z" fill="#D1E7E5"/>
<path d="M145.114 132.766C171.483 140.635 179.603 167.925 163.363 192.704C160.894 196.513 157.294 199.443 154.113 203.503C154.113 203.963 154.113 203.963 153.443 203.754C152.178 204.103 150.967 204.624 149.844 205.303L149.383 205.093C148.098 205.332 146.827 205.639 145.574 206.014C133.018 208.232 122.596 203.293 112.09 196.973C107.904 194.504 103.719 191.783 99.533 189.104C90.2829 182.784 81.4933 183.914 72.9547 190.444C69.3551 193.164 65.7136 195.634 61.6536 198.815C61.3051 199.061 60.9416 199.284 60.5653 199.485C55.1241 195.299 49.5155 190.737 43.4045 185.756C41.9659 183.48 40.9716 180.952 40.4746 178.306C40.2653 169.934 40.4746 161.187 40.7257 152.648C41.6 150.862 42.5784 149.129 43.6557 147.458C49.9759 147.458 52.4453 145.198 50.6455 139.338C53.115 137.538 55.8356 135.738 58.7236 133.687C64.8335 137.412 70.6415 141.61 76.0939 146.244C85.8044 155.243 92.3338 157.043 104.263 150.974C112.132 147.123 119.833 142.184 127.702 138.417C133.275 136.219 138.995 134.414 144.821 133.018M134.985 181.989C135.655 183.077 135.864 184.668 136.785 185.337C138.794 187.137 141.305 189.858 143.314 189.523C144.594 189.109 145.744 188.372 146.654 187.381C147.563 186.391 148.201 185.182 148.504 183.872C148.697 176.265 148.319 168.654 147.374 161.103C146.906 159.928 146.137 158.896 145.146 158.11C144.155 157.324 142.975 156.812 141.724 156.624C140.522 156.863 139.399 157.398 138.457 158.18C137.514 158.962 136.781 159.966 136.324 161.103C135.509 168.05 135.062 175.036 134.985 182.031M72.2012 181.57C73.815 177.408 74.5478 172.957 74.3533 168.497C74.1587 164.038 73.0412 159.667 71.0711 155.662C68.6017 150.681 64.751 150.22 61.8211 154.071C56.6728 160.14 56.6728 176.38 61.8211 182.449C65.1277 185.923 68.5179 186.844 72.3268 181.445L72.2012 181.57Z" fill="#167B70"/>
<path d="M40.7256 152.146C40.9767 161.145 40.5163 169.725 40.7256 178.264C41.2168 180.784 42.0623 183.222 43.2369 185.505C43.3417 186.996 43.3417 188.492 43.2369 189.983C32.8567 181.612 30.6801 160.935 39.3861 151.476C39.428 151.225 40.0977 151.685 40.7256 152.146Z" fill="#E3EEED"/>
<path d="M60.6071 199.903C60.8582 199.443 61.5279 199.443 61.7372 199.233C70.9873 208.484 82.9162 212.083 93.9662 217.483C92.0011 217.588 90.0309 217.433 88.1064 217.022C80.6561 214.092 73.2476 210.953 65.3368 207.814C62.4069 205.763 59.9374 203.628 57.2168 201.494C58.3075 200.883 59.4405 200.352 60.6071 199.903Z" fill="#F7FAFB"/>
<path d="M50.4781 139.296C52.7383 145.156 50.2689 147.416 44.1579 146.956C43.279 144.947 42.1488 141.765 42.8185 141.305C45.2066 140.116 47.814 139.433 50.4781 139.296Z" fill="#E3EEED"/>
<path d="M87.897 217.483C89.9302 217.437 91.9631 217.591 93.9661 217.943L127.451 219.282C128.12 219.534 127.911 219.534 127.911 219.534C123.581 221.513 119.136 223.232 114.601 224.682C108.071 222.212 102.463 220.203 96.8123 224.682H94.8033C92.1546 222.64 89.8266 220.214 87.897 217.483Z" fill="#5D8F8B"/>
<path d="M97.5657 224.933C102.547 220.203 108.155 222.463 114.308 224.933C116.487 227.305 118.448 229.869 120.168 232.593C118.826 233.083 117.367 233.156 115.982 232.802C114.474 232.187 113.064 231.355 111.797 230.332L111.587 230.123C111.104 229.587 110.481 229.195 109.788 228.993C109.536 228.993 109.327 228.532 109.327 228.532C107.025 222.673 102.086 225.603 97.5657 224.933Z" fill="#428F42"/>
<path d="M96.896 206.433C95.0962 205.763 93.7568 205.303 91.0361 204.424C99.4073 203.503 106.355 202.833 113.345 202.163C113.345 202.833 113.345 203.754 113.345 204.424L96.896 206.433Z" fill="#134E49"/>
<path d="M108.825 228.03C109.334 228.342 109.799 228.723 110.206 229.16C110.757 229.61 111.362 229.989 112.006 230.29V230.751C112.424 235.481 112.885 239.541 113.345 243.601H113.136C112.6 244.341 112.216 245.181 112.006 246.07H111.88C111.384 246.418 110.993 246.896 110.75 247.451H110.332C109.512 247.776 108.75 248.228 108.071 248.791H107.695L94.845 247.451L94.6358 247.2C94.1753 246.53 93.7149 246.07 93.5056 245.651C93.2963 245.233 93.0452 245.191 93.0452 244.94C91.4764 242.731 90.7121 240.052 90.8796 237.348C91.0472 234.644 92.1365 232.079 93.9661 230.081C98.1516 225.351 102.965 225.352 109.034 227.821M98.6958 237.071C97.3145 236.15 95.9751 235.481 94.1753 234.351C94.845 242.722 97.1052 244.521 104.304 243.391C109.034 242.722 111.085 238.662 109.495 232.551C105.975 234.467 102.291 236.064 98.4864 237.322L98.6958 237.071Z" fill="#346635"/>
<path d="M94.636 248.121C98.8343 248.218 103.025 248.525 107.193 249.042C103.509 253.772 98.9053 252.641 94.636 248.121Z" fill="#5CAA5B"/>
<path d="M113.806 243.391C112.898 239.256 112.296 235.059 112.006 230.835C113.316 231.183 114.541 231.796 115.606 232.634C115.327 236.266 114.725 239.866 113.806 243.391Z" fill="#5CAA5B"/>
<path d="M112.215 246.112C112.006 245.652 112.425 244.773 112.885 243.852C113.136 244.312 112.885 245.191 112.215 246.112Z" fill="#5CAA5B"/>
<path d="M108.406 248.958C108.851 248.333 109.48 247.865 110.206 247.619C109.72 248.201 109.104 248.66 108.406 248.958Z" fill="#5CAA5B"/>
<path d="M93.2964 246.112C93.5057 246.112 93.966 246.572 94.4264 247.242C94.1753 247.451 93.7568 246.991 93.2964 246.112Z" fill="#5CAA5B"/>
<path d="M110.876 247.451C110.969 247.011 111.205 246.614 111.546 246.321C111.881 246.782 111.546 247.242 110.876 247.451Z" fill="#5CAA5B"/>
<path d="M134.985 181.445C135.154 174.738 135.685 168.045 136.575 161.396C136.825 160.12 137.511 158.97 138.515 158.144C139.519 157.317 140.779 156.865 142.079 156.865C143.38 156.865 144.64 157.317 145.644 158.144C146.648 158.97 147.333 160.12 147.583 161.396C148.55 168.931 148.928 176.53 148.714 184.124C148.426 185.44 147.794 186.657 146.882 187.65C145.97 188.643 144.811 189.376 143.523 189.774C141.514 189.983 139.045 187.305 136.994 185.588C135.864 184.584 135.655 183.245 134.985 181.445Z" fill="#F4F9F8"/>
<path d="M72.1176 181.989C68.518 186.928 65.1277 186.175 61.9466 182.407C56.7984 176.338 56.7984 160.35 61.9466 154.029C64.8765 150.43 68.7272 150.89 71.1967 155.62C73.1891 159.705 74.3007 164.164 74.4593 168.707C74.6179 173.249 73.8201 177.774 72.1176 181.989Z" fill="#F4F9F8"/>
<path d="M111.88 229.872C111.389 229.753 110.931 229.524 110.541 229.202L111.88 229.872Z" fill="#5CAA5B"/>
<path d="M98.696 237.531C102.312 236.075 105.846 234.427 109.286 232.593C110.876 238.913 108.825 242.973 104.095 243.391C96.8963 244.521 94.636 242.722 93.9663 234.392C95.7661 235.522 97.1055 236.401 98.696 237.531Z" fill="#7CB05B"/>
</g>
<defs>
<clipPath id="clip0_105_2">
<rect width="211.246" height="332" fill="white"/>
</clipPath>
</defs>
</svg>
