<svg width="287" height="298" viewBox="0 0 287 298" fill="none" xmlns="http://www.w3.org/2000/svg">
<g clip-path="url(#clip0_65_13)">
<path d="M18.3573 237.67L15.8854 178.998L5.85214 89.0628C2.54409 65.1431 19.9569 51.2566 50.6017 50.4568L128.286 52.2016L232.58 47.8757C279.584 47.8757 285.691 75.358 279.547 104.403L274.204 158.677L271.623 237.234C275.258 269.624 249.084 289.981 213.714 289.981L148.462 289.545L81.501 291.399C24.2464 295.506 17.1577 267.334 18.43 233.017" fill="white"/>
<path d="M18.3573 237.67L15.8854 178.998L5.85214 89.0628C2.54409 65.1431 19.9569 51.2566 50.6017 50.4568L128.286 52.2016L232.58 47.8757C279.584 47.8757 285.691 75.358 279.547 104.403L274.204 158.677L271.623 237.234C275.258 269.624 249.084 289.981 213.714 289.981L148.462 289.545L81.501 291.399C24.2464 295.506 17.1577 267.334 18.43 233.017" stroke="#33814A" stroke-width="3" stroke-miterlimit="10"/>
<path d="M256.864 238.652C256.864 238.652 253.629 268.533 235.453 274.349C217.277 280.166 207.28 279.221 208.007 271.587C208.734 263.953 229.055 267.006 235.453 249.957C241.851 232.908 254.719 223.057 256.864 238.652Z" fill="#E4EFEE"/>
<path d="M252.684 52.8197C244.38 51.3675 235.957 50.7102 227.528 50.8566C215.199 50.6645 202.871 51.3204 190.631 52.8197C166.275 55.7642 110.147 58.9268 63.9803 53.3649C57.4732 52.5652 41.551 50.4204 26.9738 57.6545C20.1395 60.65 14.4357 65.7427 10.688 72.1953C7.3073 78.8114 9.16129 82.7011 12.542 108.547C13.9598 119.453 14.4322 124.651 15.0502 124.615C16.7588 124.615 4.72632 89.499 21.9572 70.4505C41.1148 49.2572 80.6295 65.2884 178.708 58.127C185.324 57.6181 200.919 54.7099 222.948 53.6921C239.743 52.965 252.684 53.2559 252.684 52.8197Z" fill="#E4EFEE"/>
<path d="M97.3506 50.1659C96.9696 48.9405 96.2476 47.8488 95.2692 47.0184C94.2907 46.188 93.0962 45.6532 91.8251 45.4765L77.575 43.4045L71.177 30.4631C70.6158 29.3116 69.7423 28.3409 68.6561 27.6618C67.5698 26.9828 66.3145 26.6228 65.0335 26.6228C63.7525 26.6228 62.4973 26.9828 61.4111 27.6618C60.3248 28.3409 59.4513 29.3116 58.8901 30.4631L52.4921 43.4045L38.242 45.4765C36.9679 45.6562 35.77 46.1901 34.7844 47.0174C33.7989 47.8447 33.0654 48.932 32.6676 50.1557C32.2698 51.3794 32.2237 52.6902 32.5344 53.9388C32.8451 55.1874 33.5002 56.3237 34.4251 57.2183L44.7491 67.2877L42.3134 81.5378C42.0916 82.8024 42.2286 84.1037 42.7087 85.2944C43.1889 86.4851 43.9931 87.5174 45.0301 88.2743C46.0671 89.0312 47.2953 89.4825 48.5757 89.5768C49.856 89.6712 51.1373 89.4049 52.274 88.8083L65.0335 82.0831L77.7932 88.8083C78.9299 89.4049 80.2111 89.6712 81.4915 89.5768C82.7719 89.4825 84.0001 89.0312 85.0371 88.2743C86.074 87.5174 86.8783 86.4851 87.3584 85.2944C87.8386 84.1037 87.9754 82.8024 87.7536 81.5378L85.3181 67.2877L95.6421 57.2183C96.5566 56.3193 97.2013 55.1824 97.5033 53.936C97.8052 52.6897 97.7523 51.3838 97.3506 50.1659ZM92.6975 54.2011C77.9022 69.0691 80.4105 61.4715 83.6095 82.2285C83.6925 82.7214 83.6365 83.2277 83.4479 83.6906C83.2592 84.1534 82.9453 84.5546 82.5414 84.849C82.1375 85.1434 81.6596 85.3196 81.1612 85.3575C80.6628 85.3955 80.1637 85.2938 79.7198 85.064C77.9386 84.6278 65.5425 76.2667 63.7976 77.9753L50.311 85.064C49.8783 85.2893 49.3919 85.3911 48.9053 85.3581C48.4186 85.3251 47.9505 85.1585 47.5523 84.8767C47.1541 84.595 46.8412 84.209 46.6481 83.761C46.455 83.3131 46.3891 82.8205 46.4576 82.3376C46.4576 80.52 50.3836 66.0882 48.2389 64.9613L37.3332 54.3101C36.9767 53.9619 36.724 53.5214 36.6032 53.0379C36.4825 52.5544 36.4984 52.0469 36.6492 51.572C36.8 51.097 37.0797 50.6731 37.4572 50.3479C37.8348 50.0226 38.2953 49.8086 38.7874 49.7297C40.4959 49.039 55.4366 48.4937 55.8728 46.0945L62.598 32.4261C62.8128 31.9715 63.1524 31.5873 63.5771 31.3182C64.0019 31.0492 64.4944 30.9063 64.9972 30.9063C65.5001 30.9063 65.9925 31.0492 66.4172 31.3182C66.842 31.5873 67.1816 31.9715 67.3965 32.4261L74.1216 46.0945C74.4851 48.4574 89.5712 49.0754 91.1707 49.7297C91.6443 49.8166 92.086 50.0291 92.4495 50.3449C92.813 50.6606 93.085 51.0681 93.2373 51.5249C93.3895 51.9817 93.4165 52.471 93.3151 52.9417C93.2138 53.4124 92.9879 53.8474 92.6612 54.2011H92.6975Z" fill="#408E40"/>
<path d="M81.7557 64.8521C79.6473 65.9063 83.7187 80.4835 83.5733 82.2285C83.6563 82.7213 83.6003 83.2276 83.4117 83.6905C83.223 84.1534 82.9092 84.5545 82.5053 84.8489C82.1014 85.1433 81.6234 85.3195 81.125 85.3575C80.6266 85.3954 80.1276 85.2937 79.6837 85.0639C61.1078 75.576 68.778 75.6487 50.2747 85.0639C49.8433 85.2796 49.3613 85.3737 48.8804 85.3359C48.3995 85.2982 47.9381 85.1302 47.5456 84.8498C47.1531 84.5694 46.8444 84.1874 46.6527 83.7448C46.4611 83.3021 46.3937 82.8156 46.4578 82.3375L49.0388 67.3241C50.093 65.1793 38.1332 55.8005 37.3698 54.31C37.0133 53.9618 36.7606 53.5213 36.6398 53.0378C36.519 52.5543 36.5348 52.0469 36.6856 51.5719C36.8364 51.0969 37.1163 50.6731 37.4938 50.3478C37.8714 50.0225 38.3318 49.8085 38.8239 49.7296L53.91 47.5485C54.3362 47.4866 54.741 47.3219 55.0893 47.0686C55.4377 46.8152 55.7192 46.4809 55.9094 46.0944L62.6346 32.426C62.8494 31.9714 63.1889 31.5872 63.6137 31.3182C64.0385 31.0491 64.5309 30.9062 65.0337 30.9062C65.5365 30.9062 66.0291 31.0491 66.4538 31.3182C66.8786 31.5872 67.2181 31.9714 67.433 32.426C68.6326 33.8074 73.7583 47.8757 76.1576 47.5485L91.2073 49.7296C91.7023 49.803 92.1671 50.013 92.5493 50.336C92.9315 50.6591 93.2162 51.0823 93.371 51.5582C93.5259 52.0341 93.5449 52.5438 93.4259 53.0299C93.307 53.5161 93.0548 53.9594 92.6977 54.31L81.7557 64.8521Z" fill="#DBD8D7"/>
<path d="M249.666 47.4395C249.274 46.2206 248.548 45.1357 247.572 44.3071C246.595 43.4785 245.407 42.9391 244.141 42.7501L229.854 40.6781L223.493 27.8094C222.925 26.6595 222.048 25.6911 220.959 25.0141C219.87 24.337 218.613 23.9783 217.331 23.9783C216.049 23.9783 214.792 24.337 213.703 25.0141C212.614 25.6911 211.736 26.6595 211.169 27.8094L204.807 40.7507L190.558 42.8228C189.283 43.0026 188.085 43.5364 187.1 44.3637C186.114 45.1909 185.381 46.2783 184.983 47.502C184.585 48.7257 184.539 50.0364 184.85 51.2851C185.16 52.5337 185.816 53.67 186.74 54.5645L197.064 64.6341L194.629 78.8841C194.407 80.1486 194.544 81.45 195.024 82.6407C195.504 83.8313 196.309 84.8637 197.345 85.6206C198.382 86.3775 199.611 86.8287 200.891 86.9231C202.171 87.0175 203.453 86.7512 204.589 86.1545L217.349 79.4295L230.109 86.1545C231.245 86.7512 232.527 87.0175 233.807 86.9231C235.087 86.8287 236.316 86.3775 237.353 85.6206C238.39 84.8637 239.194 83.8313 239.674 82.6407C240.154 81.45 240.291 80.1486 240.069 78.8841L237.633 64.6341L247.921 54.5645C248.863 53.6681 249.528 52.5204 249.837 51.2576C250.146 49.9947 250.087 48.6697 249.666 47.4395ZM245.013 51.4747C230.218 66.3427 232.726 58.7451 235.925 79.5385C236.014 80.032 235.962 80.5407 235.774 81.0058C235.587 81.4708 235.271 81.8732 234.864 82.1662C234.457 82.4591 233.975 82.6307 233.474 82.6611C232.974 82.6914 232.475 82.5792 232.035 82.3376C230.254 81.9014 217.822 73.5767 216.077 75.2489L202.772 82.3376C202.333 82.569 201.839 82.6729 201.344 82.6376C200.85 82.6022 200.375 82.429 199.974 82.1376C199.573 81.8462 199.261 81.4483 199.075 80.9889C198.888 80.5295 198.834 80.0271 198.918 79.5385C198.918 77.6846 202.844 63.2527 200.7 62.1258L189.794 51.4747C189.435 51.1308 189.179 50.6928 189.056 50.2108C188.934 49.7287 188.949 49.2219 189.101 48.7481C189.253 48.2744 189.534 47.8529 189.914 47.5315C190.294 47.2101 190.756 47.0019 191.248 46.9307C192.957 46.2036 207.897 45.6583 208.334 43.2954L215.059 29.627C215.274 29.1724 215.613 28.7882 216.038 28.5192C216.463 28.2501 216.955 28.1073 217.458 28.1073C217.961 28.1073 218.453 28.2501 218.878 28.5192C219.303 28.7882 219.642 29.1724 219.857 29.627L226.582 43.2954C226.946 45.6583 242.032 46.2763 243.632 46.9307C244.118 47.0129 244.572 47.2291 244.942 47.5549C245.312 47.8807 245.584 48.3034 245.728 48.7753C245.871 49.2473 245.881 49.7498 245.754 50.2266C245.628 50.7034 245.371 51.1356 245.013 51.4747Z" fill="#408E40"/>
<path d="M234.108 62.1257C232 63.2163 236.071 77.7935 235.926 79.5384C236.015 80.0319 235.963 80.5406 235.775 81.0057C235.587 81.4708 235.272 81.8731 234.865 82.1661C234.457 82.4591 233.976 82.6307 233.475 82.661C232.974 82.6913 232.475 82.5792 232.036 82.3375C213.46 72.8496 221.13 72.9223 202.627 82.3375C202.188 82.5689 201.694 82.6728 201.199 82.6375C200.705 82.6021 200.23 82.4289 199.829 82.1375C199.428 81.8461 199.116 81.4482 198.93 80.9888C198.743 80.5294 198.689 80.027 198.774 79.5384L201.318 64.4886C202.409 62.3802 190.413 52.965 189.686 51.4746C189.326 51.1308 189.071 50.6928 188.948 50.2107C188.825 49.7286 188.841 49.2218 188.992 48.7481C189.144 48.2743 189.426 47.8528 189.805 47.5314C190.185 47.21 190.647 47.0018 191.14 46.9306L206.19 44.713C206.622 44.6567 207.034 44.4946 207.389 44.241C207.745 43.9874 208.032 43.65 208.225 43.259L214.95 29.5905C215.165 29.1359 215.505 28.7518 215.93 28.4827C216.354 28.2137 216.847 28.0708 217.35 28.0708C217.852 28.0708 218.345 28.2137 218.77 28.4827C219.194 28.7518 219.534 29.1359 219.749 29.5905C220.912 31.0083 226.074 45.0766 228.473 44.713L243.523 46.9306C244.018 46.9962 244.485 47.2002 244.87 47.5193C245.254 47.8384 245.541 48.2595 245.696 48.7342C245.852 49.2089 245.871 49.7179 245.75 50.2027C245.629 50.6875 245.374 51.1284 245.014 51.4746L234.108 62.1257Z" fill="#DBD8D7"/>
<path d="M182.451 30.0996C181.937 28.5109 180.979 27.1022 179.691 26.0395C178.403 24.9768 176.838 24.3045 175.18 24.1015L157.004 21.4478L148.825 4.90763C148.123 3.42424 147.01 2.17333 145.618 1.30348C144.226 0.433629 142.614 -0.0186846 140.973 7.22834e-05C139.329 -0.0123875 137.714 0.44218 136.318 1.31091C134.921 2.17965 133.8 3.42689 133.085 4.90763L124.942 21.4478L106.766 24.1015C105.151 24.3552 103.637 25.0521 102.395 26.1147C101.152 27.1774 100.229 28.5641 99.728 30.1204C99.2268 31.6766 99.1674 33.3414 99.5563 34.9294C99.9452 36.5175 100.767 37.9663 101.931 39.1149L115.127 52.02L112 70.196C111.715 71.8114 111.888 73.4745 112.502 74.9961C113.115 76.5176 114.143 77.8364 115.469 78.8024C116.794 79.7683 118.365 80.3427 120.001 80.46C121.637 80.5773 123.274 80.2328 124.724 79.4658L141.046 70.8867L157.368 79.4658C158.818 80.2328 160.454 80.5773 162.09 80.46C163.727 80.3427 165.297 79.7683 166.623 78.8024C167.949 77.8364 168.977 76.5176 169.59 74.9961C170.203 73.4745 170.377 71.8114 170.091 70.196L166.965 52.02L180.161 39.1149C181.358 37.9837 182.208 36.5358 182.614 34.9396C183.019 33.3435 182.963 31.6649 182.451 30.0996ZM176.489 35.2616C157.586 54.2737 160.785 44.7132 164.893 71.1048C164.937 71.7199 164.824 72.336 164.565 72.8955C164.306 73.4549 163.908 73.9393 163.41 74.3028C162.912 74.6664 162.33 74.8972 161.718 74.9737C161.106 75.0502 160.485 74.9698 159.912 74.74C157.622 74.1584 141.736 63.5072 139.519 65.652L122.324 74.74C121.752 74.9698 121.131 75.0502 120.519 74.9737C119.907 74.8972 119.325 74.6664 118.827 74.3028C118.329 73.9393 117.931 73.4549 117.672 72.8955C117.413 72.336 117.3 71.7199 117.344 71.1048C117.344 68.7783 122.397 50.3477 119.671 48.8936L105.748 35.2616C105.295 34.8163 104.975 34.2536 104.824 33.6366C104.673 33.0195 104.697 32.3728 104.894 31.7687C105.09 31.1646 105.451 30.6272 105.936 30.2168C106.42 29.8064 107.01 29.5392 107.638 29.4453C109.819 28.5365 128.904 27.8094 129.449 24.7559L138.065 7.2705C138.339 6.69299 138.772 6.20517 139.312 5.86358C139.853 5.522 140.479 5.34062 141.118 5.34062C141.758 5.34062 142.384 5.522 142.925 5.86358C143.465 6.20517 143.898 6.69299 144.172 7.2705L152.787 24.7559C153.26 27.7731 172.563 28.3911 174.599 29.4453C175.227 29.5392 175.817 29.8064 176.301 30.2168C176.786 30.6272 177.147 31.1646 177.343 31.7687C177.54 32.3728 177.564 33.0195 177.413 33.6366C177.262 34.2536 176.942 34.8163 176.489 35.2616Z" fill="#408E40"/>
<path d="M97.3516 50.1659C96.9705 48.9405 96.2486 47.8488 95.2702 47.0184C94.2917 46.188 93.0972 45.6532 91.8261 45.4765L77.576 43.4045L71.178 30.4631C70.6168 29.3116 69.7433 28.3409 68.6571 27.6618C67.5708 26.9828 66.3155 26.6228 65.0345 26.6228C63.7535 26.6228 62.4983 26.9828 61.412 27.6618C60.3258 28.3409 59.4523 29.3116 58.8911 30.4631L52.4931 43.4045L38.243 45.4765C36.9689 45.6562 35.7709 46.1901 34.7854 47.0174C33.7999 47.8447 33.0664 48.932 32.6686 50.1557C32.2708 51.3794 32.2246 52.6902 32.5354 53.9388C32.8461 55.1874 33.5012 56.3237 34.4261 57.2183L44.7501 67.2877L42.3144 81.5378C42.0926 82.8024 42.2295 84.1037 42.7097 85.2944C43.1898 86.4851 43.9941 87.5174 45.0311 88.2743C46.068 89.0312 47.2963 89.4825 48.5766 89.5768C49.857 89.6712 51.1382 89.4049 52.275 88.8083L65.0345 82.0831L77.7941 88.8083C78.9309 89.4049 80.2121 89.6712 81.4925 89.5768C82.7728 89.4825 84.0011 89.0312 85.038 88.2743C86.075 87.5174 86.8793 86.4851 87.3594 85.2944C87.8396 84.1037 87.9764 82.8024 87.7546 81.5378L85.319 67.2877L95.643 57.2183C96.5576 56.3193 97.2023 55.1824 97.5042 53.936C97.8062 52.6897 97.7533 51.3838 97.3516 50.1659ZM92.6985 54.2011C77.9032 69.0691 80.4115 61.4715 83.6105 82.2285C83.6935 82.7214 83.6375 83.2277 83.4489 83.6906C83.2602 84.1534 82.9463 84.5546 82.5424 84.849C82.1385 85.1434 81.6606 85.3196 81.1622 85.3575C80.6638 85.3955 80.1646 85.2938 79.7208 85.064C77.9395 84.6278 65.5434 76.2667 63.7985 77.9753L50.3119 85.064C49.8793 85.2893 49.3929 85.3911 48.9062 85.3581C48.4196 85.3251 47.9514 85.1585 47.5532 84.8767C47.155 84.595 46.8422 84.209 46.6491 83.761C46.456 83.3131 46.3901 82.8205 46.4586 82.3376C46.4586 80.52 50.3846 66.0882 48.2398 64.9613L37.3342 54.3101C36.9777 53.9619 36.725 53.5214 36.6042 53.0379C36.4834 52.5544 36.4994 52.0469 36.6502 51.572C36.8009 51.097 37.0807 50.6731 37.4582 50.3479C37.8358 50.0226 38.2963 49.8086 38.7884 49.7297C40.4969 49.039 55.4376 48.4937 55.8738 46.0945L62.599 32.4261C62.8138 31.9715 63.1533 31.5873 63.5781 31.3182C64.0029 31.0492 64.4954 30.9063 64.9982 30.9063C65.501 30.9063 65.9935 31.0492 66.4182 31.3182C66.843 31.5873 67.1826 31.9715 67.3975 32.4261L74.1225 46.0945C74.486 48.4574 89.5722 49.0754 91.1717 49.7297C91.6453 49.8166 92.087 50.0291 92.4505 50.3449C92.814 50.6606 93.086 51.0681 93.2382 51.5249C93.3905 51.9817 93.4174 52.471 93.3161 52.9417C93.2148 53.4124 92.9889 53.8474 92.6621 54.2011H92.6985Z" fill="#408E40"/>
<path d="M81.7557 64.8521C79.6473 65.9063 83.7187 80.4835 83.5733 82.2285C83.6563 82.7213 83.6003 83.2276 83.4117 83.6905C83.223 84.1534 82.9092 84.5545 82.5053 84.8489C82.1014 85.1433 81.6234 85.3195 81.125 85.3575C80.6266 85.3954 80.1276 85.2937 79.6837 85.0639C61.1078 75.576 68.778 75.6487 50.2747 85.0639C49.8433 85.2796 49.3613 85.3737 48.8804 85.3359C48.3995 85.2982 47.9381 85.1302 47.5456 84.8498C47.1531 84.5694 46.8444 84.1874 46.6527 83.7448C46.4611 83.3021 46.3937 82.8156 46.4578 82.3375L49.0388 67.3241C50.093 65.1793 38.1332 55.8005 37.3698 54.31C37.0133 53.9618 36.7606 53.5213 36.6398 53.0378C36.519 52.5543 36.5348 52.0469 36.6856 51.5719C36.8364 51.0969 37.1163 50.6731 37.4938 50.3478C37.8714 50.0225 38.3318 49.8085 38.8239 49.7296L53.91 47.5485C54.3362 47.4866 54.741 47.3219 55.0893 47.0686C55.4377 46.8152 55.7192 46.4809 55.9094 46.0944L62.6346 32.426C62.8494 31.9714 63.1889 31.5872 63.6137 31.3182C64.0385 31.0491 64.5309 30.9062 65.0337 30.9062C65.5365 30.9062 66.0291 31.0491 66.4538 31.3182C66.8786 31.5872 67.2181 31.9714 67.433 32.426C68.6326 33.8074 73.7583 47.8757 76.1576 47.5485L91.2073 49.7296C91.7023 49.803 92.1671 50.013 92.5493 50.336C92.9315 50.6591 93.2162 51.0823 93.371 51.5582C93.5259 52.0341 93.5449 52.5438 93.4259 53.0299C93.307 53.5161 93.0548 53.9594 92.6977 54.31L81.7557 64.8521Z" fill="#DBD8D7"/>
<path d="M249.666 47.4395C249.274 46.2206 248.548 45.1357 247.572 44.3071C246.595 43.4785 245.407 42.9391 244.141 42.7501L229.854 40.6781L223.493 27.8094C222.925 26.6595 222.048 25.6911 220.959 25.0141C219.87 24.337 218.613 23.9783 217.331 23.9783C216.049 23.9783 214.792 24.337 213.703 25.0141C212.614 25.6911 211.736 26.6595 211.169 27.8094L204.807 40.7507L190.558 42.8228C189.283 43.0026 188.085 43.5364 187.1 44.3637C186.114 45.1909 185.381 46.2783 184.983 47.502C184.585 48.7257 184.539 50.0364 184.85 51.2851C185.16 52.5337 185.816 53.67 186.74 54.5645L197.064 64.6341L194.629 78.8841C194.407 80.1486 194.544 81.45 195.024 82.6407C195.504 83.8313 196.309 84.8637 197.345 85.6206C198.382 86.3775 199.611 86.8287 200.891 86.9231C202.171 87.0175 203.453 86.7512 204.589 86.1545L217.349 79.4295L230.109 86.1545C231.245 86.7512 232.527 87.0175 233.807 86.9231C235.087 86.8287 236.316 86.3775 237.353 85.6206C238.39 84.8637 239.194 83.8313 239.674 82.6407C240.154 81.45 240.291 80.1486 240.069 78.8841L237.633 64.6341L247.921 54.5645C248.863 53.6681 249.528 52.5204 249.837 51.2576C250.146 49.9947 250.087 48.6697 249.666 47.4395ZM245.013 51.4747C230.218 66.3427 232.726 58.7451 235.925 79.5385C236.014 80.032 235.962 80.5407 235.774 81.0058C235.587 81.4708 235.271 81.8732 234.864 82.1662C234.457 82.4591 233.975 82.6307 233.474 82.6611C232.974 82.6914 232.475 82.5792 232.035 82.3376C230.254 81.9014 217.822 73.5767 216.077 75.2489L202.772 82.3376C202.333 82.569 201.839 82.6729 201.344 82.6376C200.85 82.6022 200.375 82.429 199.974 82.1376C199.573 81.8462 199.261 81.4483 199.075 80.9889C198.888 80.5295 198.834 80.0271 198.918 79.5385C198.918 77.6846 202.844 63.2527 200.7 62.1258L189.794 51.4747C189.435 51.1308 189.179 50.6928 189.056 50.2108C188.934 49.7287 188.949 49.2219 189.101 48.7481C189.253 48.2744 189.534 47.8529 189.914 47.5315C190.294 47.2101 190.756 47.0019 191.248 46.9307C192.957 46.2036 207.897 45.6583 208.334 43.2954L215.059 29.627C215.274 29.1724 215.613 28.7882 216.038 28.5192C216.463 28.2501 216.955 28.1073 217.458 28.1073C217.961 28.1073 218.453 28.2501 218.878 28.5192C219.303 28.7882 219.642 29.1724 219.857 29.627L226.582 43.2954C226.946 45.6583 242.032 46.2763 243.632 46.9307C244.118 47.0129 244.572 47.2291 244.942 47.5549C245.312 47.8807 245.584 48.3034 245.728 48.7753C245.871 49.2473 245.881 49.7498 245.754 50.2266C245.628 50.7034 245.371 51.1356 245.013 51.4747Z" fill="#408E40"/>
<path d="M234.108 62.1257C232 63.2163 236.071 77.7935 235.926 79.5384C236.015 80.0319 235.963 80.5406 235.775 81.0057C235.587 81.4708 235.272 81.8731 234.865 82.1661C234.457 82.4591 233.976 82.6307 233.475 82.661C232.974 82.6913 232.475 82.5792 232.036 82.3375C213.46 72.8496 221.13 72.9223 202.627 82.3375C202.188 82.5689 201.694 82.6728 201.199 82.6375C200.705 82.6021 200.23 82.4289 199.829 82.1375C199.428 81.8461 199.116 81.4482 198.93 80.9888C198.743 80.5294 198.689 80.027 198.774 79.5384L201.318 64.4886C202.409 62.3802 190.413 52.965 189.686 51.4746C189.326 51.1308 189.071 50.6928 188.948 50.2107C188.825 49.7286 188.841 49.2218 188.992 48.7481C189.144 48.2743 189.426 47.8528 189.805 47.5314C190.185 47.21 190.647 47.0018 191.14 46.9306L206.19 44.713C206.622 44.6567 207.034 44.4946 207.389 44.241C207.745 43.9874 208.032 43.65 208.225 43.259L214.95 29.5905C215.165 29.1359 215.505 28.7518 215.93 28.4827C216.354 28.2137 216.847 28.0708 217.35 28.0708C217.852 28.0708 218.345 28.2137 218.77 28.4827C219.194 28.7518 219.534 29.1359 219.749 29.5905C220.912 31.0083 226.074 45.0766 228.473 44.713L243.523 46.9306C244.018 46.9962 244.485 47.2002 244.87 47.5193C245.254 47.8384 245.541 48.2595 245.696 48.7342C245.852 49.2089 245.871 49.7179 245.75 50.2027C245.629 50.6875 245.374 51.1284 245.014 51.4746L234.108 62.1257Z" fill="#DBD8D7"/>
<path d="M182.451 30.0996C181.937 28.5109 180.979 27.1022 179.691 26.0395C178.403 24.9768 176.838 24.3045 175.18 24.1015L157.004 21.4478L148.825 4.90763C148.123 3.42424 147.01 2.17333 145.618 1.30348C144.226 0.433629 142.614 -0.0186846 140.973 7.22834e-05C139.329 -0.0123875 137.714 0.44218 136.318 1.31091C134.921 2.17965 133.8 3.42689 133.085 4.90763L124.942 21.4478L106.766 24.1015C105.151 24.3552 103.637 25.0521 102.395 26.1147C101.152 27.1774 100.229 28.5641 99.728 30.1204C99.2268 31.6766 99.1674 33.3414 99.5563 34.9294C99.9452 36.5175 100.767 37.9663 101.931 39.1149L115.127 52.02L112 70.196C111.715 71.8114 111.888 73.4745 112.502 74.9961C113.115 76.5176 114.143 77.8364 115.469 78.8024C116.794 79.7683 118.365 80.3427 120.001 80.46C121.637 80.5773 123.274 80.2328 124.724 79.4658L141.046 70.8867L157.368 79.4658C158.818 80.2328 160.454 80.5773 162.09 80.46C163.727 80.3427 165.297 79.7683 166.623 78.8024C167.949 77.8364 168.977 76.5176 169.59 74.9961C170.203 73.4745 170.377 71.8114 170.091 70.196L166.965 52.02L180.161 39.1149C181.358 37.9837 182.208 36.5358 182.614 34.9396C183.019 33.3435 182.963 31.6649 182.451 30.0996ZM176.489 35.2616C157.586 54.2737 160.785 44.7132 164.893 71.1048C164.937 71.7199 164.824 72.336 164.565 72.8955C164.306 73.4549 163.908 73.9393 163.41 74.3028C162.912 74.6664 162.33 74.8972 161.718 74.9737C161.106 75.0502 160.485 74.9698 159.912 74.74C157.622 74.1584 141.736 63.5072 139.519 65.652L122.324 74.74C121.752 74.9698 121.131 75.0502 120.519 74.9737C119.907 74.8972 119.325 74.6664 118.827 74.3028C118.329 73.9393 117.931 73.4549 117.672 72.8955C117.413 72.336 117.3 71.7199 117.344 71.1048C117.344 68.7783 122.397 50.3477 119.671 48.8936L105.748 35.2616C105.295 34.8163 104.975 34.2536 104.824 33.6366C104.673 33.0195 104.697 32.3728 104.894 31.7687C105.09 31.1646 105.451 30.6272 105.936 30.2168C106.42 29.8064 107.01 29.5392 107.638 29.4453C109.819 28.5365 128.904 27.8094 129.449 24.7559L138.065 7.2705C138.339 6.69299 138.772 6.20517 139.312 5.86358C139.853 5.522 140.479 5.34062 141.118 5.34062C141.758 5.34062 142.384 5.522 142.925 5.86358C143.465 6.20517 143.898 6.69299 144.172 7.2705L152.787 24.7559C153.26 27.7731 172.563 28.3911 174.599 29.4453C175.227 29.5392 175.817 29.8064 176.301 30.2168C176.786 30.6272 177.147 31.1646 177.343 31.7687C177.54 32.3728 177.564 33.0195 177.413 33.6366C177.262 34.2536 176.942 34.8163 176.489 35.2616Z" fill="#408E40"/>
<path d="M162.567 48.8936C159.84 50.2386 165.038 68.8873 164.893 71.1048C164.937 71.7198 164.825 72.336 164.565 72.8954C164.306 73.4549 163.909 73.9392 163.411 74.3028C162.912 74.6663 162.33 74.8971 161.718 74.9736C161.106 75.0501 160.485 74.9697 159.913 74.74C136.138 62.5984 145.99 62.7074 122.325 74.74C121.752 74.9697 121.131 75.0501 120.519 74.9736C119.907 74.8971 119.325 74.6663 118.827 74.3028C118.329 73.9392 117.932 73.4549 117.672 72.8954C117.413 72.336 117.3 71.7198 117.344 71.1048L120.653 51.9109C122.034 49.1844 106.911 37.1518 105.748 35.2615C105.295 34.8162 104.975 34.2535 104.824 33.6365C104.673 33.0195 104.698 32.3727 104.894 31.7686C105.09 31.1646 105.451 30.6271 105.936 30.2167C106.421 29.8063 107.01 29.5392 107.638 29.4453L126.869 26.6098C127.419 26.5391 127.943 26.3326 128.394 26.009C128.844 25.6853 129.207 25.2547 129.45 24.7558L138.065 7.27045C138.34 6.69294 138.772 6.20512 139.313 5.86354C139.853 5.52195 140.479 5.34058 141.119 5.34058C141.758 5.34058 142.384 5.52195 142.925 5.86354C143.465 6.20512 143.898 6.69294 144.172 7.27045C145.699 9.08806 152.279 27.046 155.369 26.6098L174.599 29.4453C175.227 29.5392 175.817 29.8063 176.302 30.2167C176.786 30.6271 177.147 31.1646 177.344 31.7686C177.54 32.3727 177.564 33.0195 177.413 33.6365C177.262 34.2535 176.942 34.8162 176.489 35.2615L162.567 48.8936Z" fill="#DBD8D7"/>
</g>
<defs>
<clipPath id="clip0_65_13">
<rect width="287" height="297.179" fill="white"/>
</clipPath>
</defs>
</svg>
