<svg width="23" height="25" viewBox="0 0 23 25" fill="none" xmlns="http://www.w3.org/2000/svg">
<path d="M20.7397 5.48749C21.2899 3.57752 22.0484 1.73863 23.0006 0.00634766C23.0006 0.00634766 -5.78846 2.99074 3.34314 20.3574C16.3623 26.4433 18.3469 13.2898 20.7397 5.48749Z" fill="#64B846"/>
<path d="M21.6248 1.02734C21.6248 1.02734 20.0421 2.19769 17.7938 4.11577C15.0454 6.45332 12.4423 8.96806 9.99987 11.645C8.70748 13.071 7.49346 14.571 6.36355 16.1379C6.09978 16.515 5.836 16.8856 5.59735 17.2627C5.3587 17.6398 5.12004 17.9909 4.90651 18.355C4.69298 18.7191 4.47945 19.0702 4.27848 19.4213C4.07751 19.7725 3.91423 20.1041 3.75722 20.4357C3.60021 20.7672 3.44319 21.0859 3.31759 21.3849C3.19198 21.684 3.0601 21.9831 2.96589 22.2627C2.87169 22.5423 2.77749 22.7959 2.69584 23.0364L2.50744 23.6866C2.41748 23.996 2.34616 24.3109 2.29391 24.6294L2.22482 24.9675L0.96875 24.7335L1.05668 24.3628C1.12577 24.1288 1.18229 23.7647 1.33302 23.3355C1.4021 23.1145 1.48374 22.8739 1.56539 22.6138C1.64703 22.3537 1.77263 22.0807 1.89196 21.7881C2.01129 21.4955 2.14945 21.1964 2.30018 20.8778C2.45165 20.542 2.61935 20.2143 2.80262 19.896C2.97846 19.5514 3.17316 19.2068 3.39297 18.8557C3.61278 18.5046 3.82002 18.1405 4.06495 17.7829C4.30988 17.4253 4.55483 17.0481 4.82488 16.684C5.09494 16.3199 5.36498 15.9428 5.65387 15.5722C6.86095 14.0294 8.15045 12.5576 9.51629 11.1639C12.0739 8.57726 14.7883 6.16228 17.643 3.9337C19.9982 2.12615 21.6248 1.02734 21.6248 1.02734Z" fill="#4D8C40"/>
</svg>
