<?xml version="1.0" encoding="utf-8"?>
<!-- Generator: Adobe Illustrator 24.3.0, SVG Export Plug-In . SVG Version: 6.00 Build 0)  -->
<svg version="1.1" id="Calque_1" xmlns="http://www.w3.org/2000/svg" xmlns:xlink="http://www.w3.org/1999/xlink" x="0px" y="0px"
	 viewBox="0 0 373.84 363.87" style="enable-background:new 0 0 373.84 363.87;" xml:space="preserve">
<style type="text/css">
	.st0{fill:#64B846;}
	.st1{fill:#4D8C40;}
</style>
<g>
	<path class="st0" d="M250.4,137.17c3.8-13.19,9.04-25.89,15.61-37.85c0,0-198.8,20.61-135.74,140.53
		C220.17,281.88,233.88,191.05,250.4,137.17z"/>
	<path class="st1" d="M266.01,99.28c0,0-10.93,8.08-26.45,21.33c-18.98,16.14-36.95,33.51-53.82,51.99
		c-8.92,9.85-17.31,20.21-25.11,31.03c-1.82,2.6-3.64,5.16-5.29,7.77c-1.65,2.6-3.3,5.03-4.77,7.54s-2.95,4.94-4.34,7.36
		c-1.39,2.43-2.52,4.72-3.6,7c-1.08,2.29-2.17,4.49-3.04,6.56c-0.87,2.07-1.78,4.13-2.43,6.06c-0.65,1.93-1.3,3.68-1.86,5.34
		l-1.3,4.49c-0.62,2.14-1.11,4.31-1.47,6.51l-0.48,2.33l-8.67-1.62l0.61-2.56c0.48-1.62,0.87-4.13,1.91-7.09
		c0.48-1.53,1.04-3.19,1.6-4.98c0.56-1.8,1.43-3.68,2.26-5.7c0.82-2.02,1.78-4.09,2.82-6.29c1.05-2.32,2.2-4.58,3.47-6.78
		c1.21-2.38,2.56-4.76,4.08-7.18c1.52-2.42,2.95-4.94,4.64-7.41c1.69-2.47,3.38-5.07,5.25-7.59c1.86-2.51,3.73-5.12,5.72-7.68
		c8.34-10.65,17.24-20.82,26.67-30.44c17.66-17.86,36.41-34.54,56.12-49.93C254.78,106.86,266.01,99.28,266.01,99.28z"/>
</g>
</svg>
