<svg width="124" height="126" viewBox="0 0 124 126" fill="none" xmlns="http://www.w3.org/2000/svg">
<path d="M59.2491 8.16294C50.7265 4.23209 45.3803 0.613916 37.8195 14.4389C30.2588 28.2639 49.0041 54.2164 49.0041 54.2164C49.0041 54.2164 34.576 41.4634 26.7692 37.7783C18.9624 34.0931 7.91209 32.5521 1.49217 50.1069C-4.92776 67.6617 11.4464 63.7085 11.4464 63.7085C-3.29486 69.9398 2.94614 84.6581 2.94614 84.6581C12.0951 100.047 31.0641 92.6538 42.9197 85.8418C28.8495 99.0415 31.489 118.874 44.7763 122.359C60.7031 126.513 58.1977 110.678 58.1977 110.678C58.1977 110.678 63.2755 130.779 80.03 123.632C97.6344 114.184 95.1962 97.813 92.3106 89.1026C98.5068 94.8649 105.329 105.563 99.9608 122.939C105.18 126.245 110.198 125.56 115.015 120.884C115.015 120.884 116.268 104.268 99.6253 87.7403C109.736 89.3707 118.907 82.1566 122.665 75.3447C127.609 66.4109 117.051 56.6955 117.051 56.6955C118.956 54.7188 120.317 52.2828 120.999 49.6251C121.681 46.9674 121.662 44.1786 120.943 41.5305C107.141 15.7343 74.7956 49.5485 74.7956 49.5485C91.1921 20.6925 89.6263 6.84516 77.4351 1.55192C65.244 -3.74133 59.2491 8.16294 59.2491 8.16294Z" fill="#408E40"/>
</svg>
