<svg width="803" height="362" viewBox="0 0 803 362" fill="none" xmlns="http://www.w3.org/2000/svg">
<path d="M625.257 355.621C625.285 356.401 625.114 357.176 624.761 357.872C624.646 358.358 624.402 358.804 624.055 359.163C623.681 359.776 623.166 360.291 622.552 360.664L621.214 361.265L620.418 361.49C620.047 361.605 619.663 361.675 619.276 361.7C618.44 361.752 617.603 361.62 616.824 361.314C616.045 361.008 615.343 360.535 614.767 359.929C613.724 358.811 613.116 357.358 613.054 355.831V355.621C613.05 354.713 613.252 353.816 613.645 352.997C614.039 352.179 614.613 351.46 615.325 350.895C616.037 350.33 616.868 349.934 617.755 349.736C618.642 349.538 619.563 349.543 620.448 349.752L621.244 349.977C622.663 350.414 623.862 351.375 624.596 352.664C625.022 353.592 625.247 354.6 625.257 355.621Z" fill="#C8EFFD"/>
<path d="M209.236 348.762C208.506 347.469 207.306 346.506 205.884 346.075L205.087 345.835C204.201 345.626 203.279 345.62 202.391 345.819C201.502 346.018 200.671 346.415 199.959 346.982C199.246 347.549 198.672 348.269 198.28 349.09C197.888 349.91 197.687 350.809 197.693 351.719C197.713 353.316 198.323 354.85 199.406 356.026C200.13 356.764 201.04 357.294 202.04 357.558C203.04 357.822 204.093 357.811 205.087 357.527L205.884 357.287L207.222 356.702C207.84 356.334 208.356 355.818 208.725 355.201C209.069 354.837 209.317 354.394 209.446 353.91C209.793 353.212 209.958 352.437 209.927 351.659C209.901 350.655 209.665 349.669 209.236 348.762Z" fill="#C8EFFD"/>
<path d="M235.446 335.268C235.169 334.011 234.514 332.87 233.568 331.996C233.139 331.497 232.584 331.124 231.96 330.915C231.374 330.586 230.707 330.429 230.036 330.465C229.377 330.468 228.725 330.603 228.119 330.86C227.512 331.118 226.963 331.494 226.504 331.966C225.551 332.955 225.013 334.271 225.001 335.643L225.181 337.039C225.411 337.901 225.856 338.691 226.474 339.336C227.286 340.297 228.379 340.979 229.6 341.287C230.424 341.487 231.287 341.469 232.102 341.234C232.917 341 233.657 340.556 234.248 339.948C234.838 339.34 235.26 338.588 235.47 337.767C235.68 336.946 235.672 336.085 235.446 335.268Z" fill="#C8EFFD"/>
<path d="M254.819 342.503C251.092 342.503 251.092 348.507 254.819 348.507C258.546 348.507 258.561 342.503 254.819 342.503Z" fill="#C8EFFD"/>
<path d="M650.686 339.17C650.411 337.917 649.761 336.776 648.823 335.898C648.392 335.403 647.837 335.03 647.215 334.817C646.623 334.505 645.96 334.35 645.291 334.367C644.63 334.37 643.976 334.504 643.367 334.762C642.758 335.02 642.206 335.396 641.744 335.868C640.788 336.861 640.25 338.183 640.241 339.56L640.422 340.941C640.64 341.805 641.08 342.596 641.699 343.238C642.515 344.202 643.614 344.885 644.84 345.189C645.664 345.39 646.527 345.372 647.342 345.137C648.157 344.902 648.897 344.458 649.488 343.85C650.078 343.242 650.5 342.49 650.71 341.669C650.92 340.849 650.912 339.987 650.686 339.17Z" fill="#C8EFFD"/>
<path d="M670.044 346.36C666.317 346.36 666.302 352.364 670.044 352.364C673.786 352.364 673.801 346.36 670.044 346.36Z" fill="#C8EFFD"/>
<path d="M802.075 2.5215H2.194V362H802.075V2.5215Z" fill="#79DBF4"/>
<path opacity="0.2" d="M729.74 37.9741C740.441 34.3718 751.307 30.7695 762.488 27.9928C774.316 25.0659 788.203 22.6494 799.956 17.5762V0H778.479C768.064 12.2778 729.124 19.5124 719.129 25.5162C705.302 33.8315 700.884 47.28 682.518 45.9292C668.105 44.8635 661.598 39.2049 659.163 25.7714C657.54 16.6906 653.738 9.35096 651.363 0.720474C651.363 0.480322 651.258 0.240153 651.198 0H621.38C623.067 2.0788 625.017 3.93041 627.181 5.50852C632.035 8.9457 638.603 10.6718 643.202 14.5142C653.482 22.9946 650.266 32.5257 637.641 37.0285C626.445 41.0211 619.802 42.6121 611.16 50.6272C603.059 58.132 596.221 66.102 584.107 66.7924C569.875 67.603 556.364 65.6067 544.16 58.5522C534.842 53.1938 526.621 45.554 517.634 39.5652C508.24 33.3212 504.859 27.7076 510.269 17.321C514.237 9.68116 523.705 6.30402 532.212 3.4372C534.391 2.70173 537.728 1.54598 541.229 0.0450268H400.106V18.1766C404.284 16.0302 408.402 5.70363 411.633 5.4935C424.032 4.65296 437.183 9.27589 449.582 9.89128C460.373 10.4316 502.74 11.9176 489.213 32.0003C482.811 41.5164 461.41 36.1129 451.926 34.8972C436.311 32.8859 428.03 31.5801 414.714 38.9647C410.731 41.1711 387.662 24.4956 380.883 24.3905C387.391 22.8789 393.764 20.8409 399.94 18.2966V0.675447H378.479C368.049 12.9382 329.123 20.1878 319.114 26.1917C305.302 34.5069 300.883 47.9555 282.503 46.6046C268.105 45.5539 261.582 39.8803 259.162 26.4468C257.539 17.4411 253.737 10.0264 251.377 1.4109C251.377 1.17075 251.257 0.930578 251.197 0.690426H221.364C223.052 2.769 225.002 4.62058 227.165 6.19895C232.02 9.62112 238.588 11.3622 243.202 15.2047C253.466 23.6851 250.235 33.2161 237.626 37.719C226.429 41.7115 219.786 43.3025 211.129 51.3176C203.044 58.8224 196.19 66.7774 184.077 67.4679C169.844 68.2784 156.333 66.2821 144.114 59.2426C134.811 53.8842 126.59 46.2444 117.588 40.2556C108.21 34.0116 104.828 28.398 110.239 18.0114C114.206 10.3716 123.675 6.97943 132.181 4.12762C134.361 3.39216 137.697 2.23641 141.199 0.735453H0.0751446V10.4016C4.26827 8.24022 8.38626 6.39409 11.6175 6.16894C24.0166 5.32841 37.1671 9.95134 49.5661 10.5667C60.342 11.1071 102.724 12.608 89.1979 32.6908C82.7955 42.2068 61.394 36.8034 51.9106 35.5726C36.2954 33.5613 27.2629 35.9779 13.947 43.3626C9.70883 45.7041 4.92956 48.9161 0.0751446 51.1825V66.9275C13.1806 58.4771 27.9091 53.1938 45.884 55.7454C59.2298 57.6216 67.571 61.7492 81.3978 60.0532C91.5124 58.8074 104.528 57.5466 114.221 61.2689C127.492 66.3572 135.563 79.4005 142.777 89.8771C149.179 99.108 151.118 118.395 137.817 124.504C125.493 130.223 109.021 117.285 98.3507 113.517C81.2325 107.513 60.9882 113.412 43.9001 115.964C30.1034 118.035 25.2339 123.468 13.6615 128.947C9.37506 130.961 4.7322 132.109 0 132.324V153.608C5.64325 152.611 11.1579 150.99 16.4419 148.775C30.0733 143.131 43.1036 137.667 57.2159 133.15C66.7444 130.148 83.547 126.816 90.3852 136.031C99.538 148.324 83.6522 159.701 74.9353 167.071C59.0495 180.58 62.8218 194.434 57.1408 211.559C51.4598 228.685 35.8144 238.817 18.035 246.307C12.2945 248.834 6.22118 250.527 0 251.335V272.423C6.76311 268.28 13.8719 264.033 20.8003 260.415C30.0883 255.522 48.5141 246.832 59.0645 253.181C63.2126 255.687 63.8889 262.607 66.4589 266.044C70.0959 270.892 76.0174 272.768 81.0521 276.1C97.8547 287.162 97.99 308.656 87.7702 323.696C79.6995 335.583 58.0576 344.709 49.2956 328.289C44.1105 318.592 48.98 303.343 33.2895 301.497C18.7413 299.8 12.1135 313.879 0 317.287V359.493H94.4281C95.849 352.527 98.446 345.853 102.108 339.756C110.119 325.992 119.978 309.076 118.309 292.971C117.047 280.798 103.431 262.277 124.787 258.344C131.851 257.053 138.463 259.725 145.136 256.168C153.087 251.935 153.688 243.62 156.438 236.55C163.532 218.239 184.603 208.122 198.775 228.07C209.702 243.455 190.915 258.704 178.847 268.31C170.551 274.9 158.843 280.964 157.641 291.8C156.483 302.307 166.523 308.626 174.068 315.065C183.085 322.735 194.222 330.93 198.009 341.962C199.634 347.636 200.094 353.578 199.362 359.433H238.708C227.872 333.917 184.603 318.908 192.117 289.639C196.085 274.074 208.379 268.025 220.673 258.434C232.14 249.519 247.214 232.768 265.46 239.252C289.371 247.732 263.957 269.841 253.617 276.476C245.606 281.639 234.92 285.677 231.644 294.487C228.112 304.048 234.755 312.348 240.812 319.583C250.295 330.96 276.266 340.822 277.243 356.446C277.319 357.448 277.284 358.455 277.137 359.448H301.184C292.166 347.441 281.646 336.064 277.693 321.759C272.283 301.902 283.284 280.588 297.231 265.414C306.144 255.778 330.055 236.055 345.009 246.667C359.963 257.278 350.254 278.682 346.512 291.395C342.499 304.904 338.065 319.223 351.892 328.784C363.284 336.649 376.315 346.585 381.184 359.448H399.91V336.844L398.678 336.424C389.21 332.571 381.029 326.118 375.082 317.812C364.246 301.572 371.039 280.138 372.948 262.877C374.256 251.08 373.369 235.545 358.009 232.393C346.377 230.021 332.715 235.575 322.916 226.719C312.651 217.458 322.826 203.169 334.489 200.302C351.021 196.22 368.199 199.372 384.34 205.36C388.116 206.967 391.503 209.362 394.274 212.385C404.795 225.008 419.373 249.428 424.949 249.909C442.984 251.41 448.575 246.171 459.125 252.535C463.273 255.027 463.965 261.946 466.519 265.384C470.157 270.247 476.078 272.123 481.128 275.44C497.915 286.517 498.051 308.011 487.831 323.035C479.76 334.923 457.953 344.049 449.356 327.643C444.968 319.223 446.561 319.988 430.585 317.677C416.082 315.576 412.159 333.347 400.076 336.754V358.833H494.399C495.838 351.87 498.439 345.198 502.093 339.095C510.104 325.347 519.978 308.431 518.295 292.371C517.032 280.198 503.416 261.676 524.772 257.744C531.836 256.453 538.449 259.14 545.122 255.582C553.072 251.335 553.673 243.034 556.424 235.965C563.518 217.638 584.603 207.522 598.761 227.47C609.687 242.854 590.901 258.119 578.832 267.71C570.551 274.299 558.828 280.363 557.626 291.215C556.469 301.722 566.508 308.026 574.053 314.48C575.691 315.876 577.42 317.302 579.163 318.758C579.156 318.698 579.156 318.637 579.163 318.577C579.193 317.754 579.409 316.947 579.795 316.218C580.18 315.489 580.726 314.857 581.39 314.368C582.055 313.879 582.822 313.546 583.633 313.393C584.444 313.241 585.279 313.274 586.076 313.489L586.828 313.699C588.131 314.043 589.251 314.877 589.954 316.026C590.399 316.805 590.647 317.681 590.675 318.577C590.709 319.257 590.553 319.932 590.224 320.529C590.104 320.958 589.87 321.346 589.548 321.654C589.165 322.209 588.648 322.658 588.045 322.96L586.798 323.471L586.046 323.666C585.703 323.763 585.35 323.824 584.994 323.846C590.615 328.979 595.68 334.653 597.979 341.377C599.612 347.044 600.073 352.983 599.332 358.833H638.678C627.842 333.317 584.573 318.307 592.088 289.054C596.071 273.489 608.349 267.44 620.643 257.849C632.111 248.918 647.185 232.183 665.43 238.652C683.465 245.031 673.456 259.125 663.056 268.536C663.695 268.929 664.224 269.478 664.593 270.132C664.961 270.786 665.156 271.523 665.16 272.273C665.161 273.058 664.949 273.828 664.547 274.502C664.145 275.176 663.567 275.728 662.875 276.1L662.244 276.386C661.487 276.819 660.629 277.047 659.757 277.047C658.884 277.047 658.027 276.819 657.269 276.386C656.516 275.973 655.891 275.36 655.466 274.614L653.587 275.875C645.577 281.054 634.891 285.076 631.615 293.887C628.083 303.433 634.726 311.733 640.782 318.968C650.266 330.345 676.251 340.206 677.213 355.831C677.279 356.832 677.249 357.838 677.123 358.833H701.169C692.152 346.825 681.632 335.448 677.679 321.144C672.268 301.286 683.27 279.988 697.217 264.798C706.114 255.162 730.04 235.44 744.994 246.051C759.948 256.663 750.24 278.067 746.497 290.78C742.5 304.288 738.036 318.622 751.878 328.184C763.27 336.049 776.3 345.97 781.17 358.833H799.896V336.169L798.664 335.763C789.198 331.899 781.018 325.442 775.068 317.136C764.232 300.896 771.025 279.478 772.934 262.202C774.256 250.404 773.369 234.869 757.904 231.717C746.287 229.346 732.625 234.899 722.826 226.044C712.562 216.783 722.736 202.509 734.399 199.627C750.931 195.544 767.147 207.132 784.266 204.685C790.067 203.845 795.102 202.689 799.821 202.163V192.092C793.372 193.053 786.784 192.388 780.659 190.156C764.728 184.287 766.231 167.566 754.328 158.861C744.303 151.536 734.219 152.767 726.088 142.35C718.904 133.15 708.564 113.022 710.247 101.825C712.276 88.3161 727.38 93.5845 733.828 102.185C746.633 119.311 745.626 139.604 771.867 147.424C781.2 150.2 790.443 150.621 799.821 151.236V135.551C796.9 136.51 793.757 136.567 790.803 135.716C775.534 131.889 772.077 116.879 766.216 106.147C760.354 95.4156 754.808 84.1885 744.183 76.8338C733.076 69.209 721.97 72.5411 710.337 67.4229C687.929 57.6517 718.318 41.8316 729.74 37.9741ZM691.806 54.7698C698.795 54.7698 698.78 65.2765 691.806 65.2765C684.833 65.2765 684.833 54.7698 691.806 54.7698ZM680.565 81.1265C687.388 81.1265 687.373 91.3481 680.565 91.3481C673.756 91.3481 673.801 81.1265 680.565 81.1265ZM329.679 38.6496C340.38 35.0473 351.246 31.43 362.428 28.6682L366.005 27.7976C386.895 42.477 427.91 52.4583 445.869 55.0099C459.2 56.8861 467.556 61.0138 481.368 59.3177C491.483 58.0719 504.498 56.8111 514.192 60.5335C527.463 65.6367 535.548 78.665 542.822 89.1417C549.24 98.3725 551.149 117.66 537.863 123.784C525.539 129.487 509.067 116.564 498.396 112.782C481.278 106.778 461.034 112.677 443.946 115.243C430.149 117.3 425.28 122.748 413.707 128.211C409.529 130.193 404.78 135.926 400.061 136.106L399.895 136.767V136.227C396.973 137.178 393.833 137.235 390.878 136.392C375.608 132.564 372.137 117.555 366.29 106.823C360.444 96.0911 354.763 84.8639 344.122 77.5693C333.016 69.9294 321.924 73.2766 310.292 68.1583C287.913 58.3121 318.362 42.492 329.724 38.6496H329.679ZM219.32 186.884C214.376 204.34 175.931 203.544 160.376 198.726C150.727 195.724 139.47 189.345 128.92 191.747C116.461 194.569 113.545 205.045 119.301 214.471C125.313 224.348 137.096 233.984 123.525 243.875C116.01 249.338 104.633 251.02 94.3529 249.413C78.6775 246.967 65.5872 236.865 72.8312 220.775C76.2128 213.271 83.1412 208.272 88.0858 201.638C94.5183 193.008 96.5773 183.326 99.8536 173.6C104.122 160.872 106.286 148.624 120.444 142.756C130.408 138.628 136.976 140.309 143.228 148.76C149.239 156.82 150.201 169.563 161.759 172.925C173.647 176.392 183.491 168.182 195.439 167.837C208.484 167.506 223.438 172.294 219.32 186.884ZM198.385 157.27C194.667 155.917 191.335 153.681 188.676 150.756C184.603 146.553 181.597 141.375 178.351 136.872C168.822 123.664 152.801 98.4476 177.389 90.2073C189.923 86.0047 200.804 86.0497 210.528 76.5186C220.628 66.6273 226.91 53.434 242.375 48.6909C260.5 43.1074 272.283 50.8373 275.244 66.8675C278.956 87.0553 258.967 95.4757 252.054 112.812C245.14 130.148 252.204 145.217 229.255 155.003C220.462 158.771 207.958 160.557 198.385 157.27ZM328.402 186.704C320.557 189.555 316.499 191.537 311.719 198.711C305.122 208.528 301.199 222.591 286.831 225.308C275.965 227.364 267.158 220.205 256.127 221.181C244.614 222.201 232.877 226.254 228.533 213.12C223.724 198.636 236.168 191.522 242.42 180.505C248.432 169.998 244.043 162.613 254.564 154.268C265.595 145.502 264.798 128.106 276.145 120.467C290.889 110.545 298.854 122.943 299.185 134.861C299.471 144.482 294.045 158.155 301.139 166.591C309.796 176.872 328.191 168.092 336.142 176.782C341.492 182.561 333.136 184.993 328.402 186.704ZM461.229 248.768C460.576 249.138 459.838 249.332 459.088 249.332C458.337 249.332 457.599 249.138 456.946 248.768L456.826 248.693C456.205 248.353 455.688 247.852 455.327 247.243C454.967 246.635 454.776 245.94 454.776 245.233C454.776 244.526 454.967 243.832 455.327 243.223C455.688 242.615 456.205 242.114 456.826 241.774L456.946 241.699C457.598 241.326 458.336 241.13 459.088 241.13C459.839 241.13 460.577 241.326 461.229 241.699C461.861 242.049 462.388 242.559 462.758 243.179C463.127 243.798 463.326 244.505 463.333 245.226C463.324 245.949 463.125 246.656 462.755 247.278C462.386 247.899 461.86 248.413 461.229 248.768ZM457.231 210.824C451.505 228.1 452.918 235.154 430.615 230.757C420.876 228.835 408.071 208.603 400.211 200.302C399.535 199.597 398.903 198.981 398.317 198.471C397.04 197.931 395.883 197.42 394.815 196.97C388.939 194.359 385.798 192.707 380.763 190.876C364.847 184.903 366.35 168.242 354.432 159.536C344.408 152.212 334.323 153.427 326.177 143.026C319.009 133.825 308.668 113.697 310.352 102.5C312.381 88.9916 327.485 94.2449 333.932 102.86C346.737 119.986 345.73 140.279 371.971 148.099C381.304 150.876 390.547 151.281 399.925 151.912V151.026C406.132 150.17 413.797 149.225 416.533 148.024L420.56 146.358C420.34 146.373 420.119 146.373 419.899 146.358C418.879 146.358 417.9 145.953 417.179 145.233C416.457 144.512 416.052 143.535 416.052 142.516C416.052 141.496 416.457 140.519 417.179 139.799C417.9 139.078 418.879 138.673 419.899 138.673C420.703 138.68 421.484 138.934 422.137 139.402C422.79 139.87 423.282 140.528 423.545 141.286C423.808 142.044 423.831 142.865 423.608 143.636C423.386 144.407 422.93 145.09 422.304 145.593C433.876 140.804 445.178 136.242 457.292 132.354C466.835 129.352 483.623 126.035 490.461 135.236C499.614 147.544 483.728 158.921 475.011 166.291C459.14 179.799 462.912 193.698 457.231 210.824ZM619.336 186.223C614.436 203.679 575.947 202.914 560.331 198.051C550.683 195.049 539.426 188.685 528.875 191.071C516.416 193.908 513.501 204.385 519.257 213.796C525.268 223.687 537.051 233.308 523.48 243.2C515.965 248.663 504.588 250.359 494.308 248.753C478.633 246.307 465.543 236.19 472.787 220.1C476.168 212.595 483.097 207.597 488.041 200.963C494.474 192.332 496.548 182.666 499.809 172.94C504.077 160.197 506.257 147.949 520.399 142.08C530.363 137.953 536.931 139.634 543.183 148.084C549.195 156.129 550.157 168.872 561.714 172.234C573.617 175.702 583.446 167.491 595.394 167.146C608.425 166.891 623.454 171.619 619.336 186.223ZM598.4 156.61C594.689 155.245 591.359 153.011 588.691 150.095C584.664 145.878 581.553 140.639 578.366 136.212C568.838 123.003 552.817 97.8021 577.42 89.5469C589.939 85.3442 600.82 85.3892 610.484 75.8732C620.583 65.9669 626.865 52.7885 642.33 48.0305C660.456 42.462 672.253 50.1769 675.199 66.2221C678.911 86.4099 658.938 94.8152 652.009 112.151C645.081 129.487 652.159 144.572 629.21 154.358C620.448 158.095 607.974 159.882 598.4 156.61ZM736.157 176.122C741.508 181.976 733.151 184.392 728.417 186.118C720.572 188.955 716.529 190.951 711.735 198.051C705.137 207.867 701.215 221.946 686.847 224.663C675.981 226.704 667.174 219.544 656.142 220.535C644.63 221.556 632.892 225.593 628.549 212.46C623.754 197.976 636.198 190.876 642.436 179.844C648.447 169.338 644.059 161.953 654.579 153.608C665.61 144.842 664.814 127.446 676.161 119.806C690.89 109.885 698.87 122.283 699.201 134.2C699.486 143.836 694.061 157.51 701.154 165.93C709.811 176.137 728.222 167.356 736.172 176.047L736.157 176.122Z" fill="#2D8DAA"/>
<path d="M62.1304 310.232C61.6289 309.702 61.0244 309.28 60.3537 308.991C59.6831 308.703 58.9606 308.554 58.2303 308.554C57.5001 308.554 56.7776 308.703 56.107 308.991C55.4363 309.28 54.8318 309.702 54.3303 310.232C53.3013 311.338 52.7271 312.79 52.7222 314.3C52.7271 315.809 53.3013 317.262 54.3303 318.367C54.8318 318.897 55.4363 319.32 56.107 319.608C56.7776 319.897 57.5001 320.046 58.2303 320.046C58.9606 320.046 59.6831 319.897 60.3537 319.608C61.0244 319.32 61.6289 318.897 62.1304 318.367C63.1727 317.269 63.7536 315.813 63.7536 314.3C63.7536 312.786 63.1727 311.331 62.1304 310.232Z" fill="#C8EFFD"/>
<path d="M51.3995 285.361C50.3743 285.382 49.3979 285.802 48.6792 286.532C47.9647 287.299 47.5673 288.307 47.567 289.354C47.5585 290.389 47.9539 291.386 48.6694 292.134C49.3849 292.882 50.3642 293.323 51.3995 293.362C52.4204 293.342 53.3925 292.922 54.1047 292.191C54.8244 291.421 55.2269 290.408 55.2319 289.354C55.2365 288.322 54.8393 287.329 54.1242 286.584C53.4091 285.839 52.4321 285.4 51.3995 285.361Z" fill="#C8EFFD"/>
<path d="M71.6289 262.952C70.9505 262.537 70.1702 262.317 69.3745 262.317C68.5787 262.317 67.7985 262.537 67.1201 262.952L66.9999 263.042C66.3229 263.466 65.7649 264.055 65.3781 264.753C64.9913 265.452 64.7884 266.237 64.7884 267.035C64.7884 267.833 64.9913 268.618 65.3781 269.316C65.7649 270.014 66.3229 270.603 66.9999 271.027L67.1201 271.117C67.7997 271.529 68.5795 271.747 69.3745 271.747C70.1695 271.747 70.9493 271.529 71.6289 271.117C72.3179 270.681 72.8855 270.078 73.2787 269.365C73.672 268.651 73.8782 267.849 73.8782 267.035C73.8782 266.22 73.672 265.419 73.2787 264.705C72.8855 263.991 72.3179 263.388 71.6289 262.952Z" fill="#C8EFFD"/>
<path d="M11.5422 168.782C10.9557 168.152 10.2452 167.649 9.45518 167.305C8.66517 166.961 7.81264 166.783 6.95084 166.783C6.08905 166.783 5.23651 166.961 4.44651 167.305C3.65651 167.649 2.94602 168.152 2.35944 168.782C1.73166 169.382 1.26629 170.13 1.00682 170.958C0.602502 171.762 0.411061 172.656 0.450738 173.555C0.45206 175.336 1.13489 177.049 2.35944 178.343C2.94602 178.974 3.65651 179.477 4.44651 179.821C5.23651 180.164 6.08905 180.342 6.95084 180.342C7.81264 180.342 8.66517 180.164 9.45518 179.821C10.2452 179.477 10.9557 178.974 11.5422 178.343C12.17 177.743 12.6354 176.995 12.8949 176.167C13.3011 175.358 13.4925 174.459 13.4509 173.555C13.4473 171.779 12.7645 170.072 11.5422 168.782Z" fill="#C8EFFD"/>
<path d="M27.4581 144.182C21.9875 144.182 21.9875 153.052 27.4581 153.052C32.9287 153.052 32.9438 144.182 27.4581 144.182Z" fill="#C8EFFD"/>
<path d="M4.38855 127.101C-0.120188 127.101 -0.195333 134.515 4.38855 134.515C8.97244 134.515 8.97244 127.101 4.38855 127.101Z" fill="#C8EFFD"/>
<path d="M170.37 5.55356C170.003 4.83492 169.46 4.22053 168.792 3.76742C168.211 3.20711 167.489 2.81312 166.703 2.62668L165.907 2.43155C164.824 2.1341 163.681 2.13474 162.599 2.43333C161.517 2.73193 160.536 3.31737 159.76 4.12763C158.59 5.39775 157.931 7.05497 157.911 8.7806C157.928 10.5024 158.587 12.1561 159.76 13.4185C160.538 14.2261 161.519 14.8097 162.6 15.1081C163.682 15.4065 164.824 15.4088 165.907 15.1146L166.703 14.9195L168.206 14.2891C168.913 13.8934 169.507 13.3254 169.934 12.6381C170.309 12.2406 170.578 11.7554 170.716 11.2272C171.102 10.4714 171.283 9.62798 171.242 8.7806C171.183 7.6554 170.886 6.55545 170.37 5.55356Z" fill="#C8EFFD"/>
<path d="M174.473 32.2855C170.506 32.2855 170.506 38.7096 174.473 38.7096C178.441 38.7096 178.456 32.2855 174.473 32.2855Z" fill="#C8EFFD"/>
<path d="M202.307 8.40544C201.49 7.92351 200.558 7.6693 199.609 7.6693C198.66 7.6693 197.729 7.92351 196.912 8.40544L196.641 8.55555C195.866 9.06364 195.229 9.75631 194.789 10.5712C194.349 11.386 194.118 12.2975 194.118 13.2235C194.118 14.1495 194.349 15.061 194.789 15.8759C195.229 16.6907 195.866 17.3834 196.641 17.8915L196.912 18.0415C197.726 18.5312 198.659 18.79 199.609 18.79C200.56 18.79 201.493 18.5312 202.307 18.0415C203.117 17.5244 203.783 16.812 204.245 15.97C204.707 15.128 204.949 14.1835 204.949 13.2235C204.949 12.2635 204.707 11.319 204.245 10.4769C203.783 9.63493 203.117 8.92255 202.307 8.40544Z" fill="#C8EFFD"/>
<path d="M246.222 8.48024C242.555 8.48024 242.54 14.4841 246.222 14.4841C249.904 14.4841 249.95 8.48024 246.222 8.48024Z" fill="#C8EFFD"/>
<path d="M306.113 77.7044C298.824 77.7044 298.824 89.4869 306.113 89.4869C313.402 89.4869 313.402 77.7044 306.113 77.7044Z" fill="#C8EFFD"/>
<path d="M318.077 47.265C310.562 47.265 310.562 59.3477 318.077 59.3477C325.591 59.3477 325.546 47.265 318.077 47.265Z" fill="#C8EFFD"/>
<path d="M360.639 51.4525C360.341 50.9515 359.948 50.5131 359.482 50.1617C358.861 49.6953 358.141 49.377 357.378 49.2311C356.968 49.1204 356.54 49.0926 356.119 49.1493C355.699 49.206 355.294 49.3461 354.928 49.5613L354.297 50.0717C353.892 50.4894 353.607 51.0076 353.47 51.5726C353.157 52.1908 353.003 52.8765 353.019 53.5689C353.025 54.2191 353.172 54.8603 353.449 55.4485C353.727 56.0366 354.129 56.5577 354.627 56.976C354.903 57.2009 355.195 57.4066 355.499 57.5914C356.07 57.9372 356.725 58.1201 357.393 58.1201C358.06 58.1201 358.715 57.9372 359.286 57.5914C359.844 57.2475 360.304 56.767 360.624 56.1955C360.959 55.5943 361.135 54.9175 361.135 54.2293C361.135 54.0342 361.135 53.839 361.135 53.6439C361.149 52.8842 360.979 52.1324 360.639 51.4525Z" fill="#C8EFFD"/>
<path d="M380.478 141.87C374.331 141.87 374.331 151.807 380.478 151.807C386.624 151.807 386.624 141.87 380.478 141.87Z" fill="#C8EFFD"/>
<path d="M360.82 140.699C357.618 140.699 357.618 145.863 360.82 145.863C364.021 145.863 364.006 140.699 360.82 140.699Z" fill="#C8EFFD"/>
<path d="M321.864 233.608C321.494 232.925 320.946 232.354 320.278 231.956C319.61 231.558 318.847 231.348 318.069 231.348C317.291 231.348 316.528 231.558 315.86 231.956C315.192 232.354 314.644 232.925 314.274 233.608C313.882 234.316 313.676 235.111 313.676 235.92C313.676 236.729 313.882 237.524 314.274 238.231L314.68 238.877C315.011 239.488 315.502 239.998 316.1 240.354C316.697 240.71 317.38 240.898 318.076 240.898C318.772 240.898 319.455 240.71 320.053 240.354C320.651 239.998 321.142 239.488 321.473 238.877L321.864 238.231C322.263 237.526 322.473 236.73 322.473 235.92C322.473 235.11 322.263 234.314 321.864 233.608Z" fill="#C8EFFD"/>
<path d="M351.426 227.364C346.377 227.364 346.362 235.56 351.426 235.56C356.491 235.56 356.476 227.364 351.426 227.364Z" fill="#C8EFFD"/>
<path d="M287.222 293.857L286.545 293.512C285.745 293.02 284.825 292.76 283.885 292.76C282.946 292.76 282.025 293.02 281.225 293.512C280.425 294.022 279.766 294.725 279.309 295.556C278.852 296.388 278.613 297.321 278.613 298.27C278.613 299.218 278.852 300.151 279.309 300.983C279.766 301.814 280.425 302.518 281.225 303.028C282.025 303.519 282.946 303.779 283.885 303.779C284.825 303.779 285.745 303.519 286.545 303.028L287.222 302.682C287.963 302.209 288.574 301.556 288.996 300.785C289.419 300.014 289.641 299.149 289.641 298.27C289.641 297.39 289.419 296.525 288.996 295.754C288.574 294.983 287.963 294.331 287.222 293.857Z" fill="#C8EFFD"/>
<path d="M477.386 314.149C476.356 313.094 474.953 312.485 473.478 312.453C472.749 312.465 472.03 312.621 471.362 312.912C470.694 313.203 470.09 313.624 469.586 314.149C468.544 315.245 467.964 316.699 467.964 318.21C467.964 319.72 468.544 321.174 469.586 322.27C470.087 322.8 470.692 323.222 471.362 323.511C472.033 323.799 472.755 323.948 473.486 323.948C474.216 323.948 474.938 323.799 475.609 323.511C476.28 323.222 476.884 322.8 477.386 322.27C478.415 321.164 478.989 319.712 478.994 318.202C478.997 316.695 478.421 315.245 477.386 314.149Z" fill="#C8EFFD"/>
<path d="M466.64 289.279C466.133 289.285 465.634 289.392 465.169 289.593C464.705 289.794 464.285 290.085 463.934 290.45C463.213 291.213 462.81 292.222 462.807 293.271C462.802 294.303 463.2 295.297 463.915 296.042C464.63 296.787 465.607 297.225 466.64 297.264C467.665 297.244 468.641 296.823 469.36 296.093C470.074 295.327 470.472 294.318 470.472 293.271C470.477 292.239 470.079 291.246 469.364 290.501C468.649 289.756 467.672 289.318 466.64 289.279Z" fill="#C8EFFD"/>
<path d="M489.123 270.997C489.129 271.812 488.926 272.614 488.534 273.329C488.142 274.043 487.574 274.646 486.884 275.08C486.196 275.507 485.402 275.733 484.592 275.733C483.782 275.733 482.988 275.507 482.3 275.08L482.18 274.96C481.506 274.533 480.952 273.944 480.567 273.246C480.183 272.548 479.982 271.764 479.982 270.967C479.982 270.171 480.183 269.387 480.567 268.689C480.952 267.991 481.506 267.401 482.18 266.975L482.3 266.885C482.988 266.458 483.782 266.232 484.592 266.232C485.402 266.232 486.196 266.458 486.884 266.885C487.579 267.322 488.149 267.929 488.541 268.649C488.933 269.369 489.134 270.178 489.123 270.997Z" fill="#C8EFFD"/>
<path d="M426.798 172.685C426.206 172.06 425.493 171.562 424.702 171.221C423.912 170.881 423.06 170.706 422.199 170.706C421.338 170.706 420.486 170.881 419.695 171.221C418.904 171.562 418.191 172.06 417.6 172.685C416.974 173.284 416.514 174.033 416.262 174.861C415.852 175.668 415.66 176.569 415.706 177.473C415.708 179.251 416.384 180.962 417.6 182.261C418.191 182.886 418.904 183.384 419.695 183.724C420.486 184.064 421.338 184.24 422.199 184.24C423.06 184.24 423.912 184.064 424.702 183.724C425.493 183.384 426.206 182.886 426.798 182.261C427.423 181.662 427.884 180.913 428.135 180.084C428.538 179.275 428.729 178.376 428.691 177.473C428.689 175.695 428.013 173.984 426.798 172.685Z" fill="#C8EFFD"/>
<path d="M445.283 156.069C444.762 156.521 444.119 156.808 443.435 156.895C443.197 156.943 442.955 156.968 442.713 156.97C437.227 156.97 437.243 148.099 442.713 148.099C447.132 148.099 447.973 153.848 445.283 156.069Z" fill="#C8EFFD"/>
<path d="M419.628 131.018C415.12 131.018 415.12 138.418 419.628 138.418C424.137 138.418 424.212 131.018 419.628 131.018Z" fill="#C8EFFD"/>
<path d="M585.611 9.45579C585.239 8.74004 584.697 8.12663 584.032 7.6697C583.458 7.10811 582.741 6.71369 581.958 6.52896L581.147 6.33383C580.064 6.03638 578.921 6.03697 577.839 6.33557C576.757 6.63417 575.776 7.21965 575 8.02992C573.812 9.28873 573.151 10.9531 573.151 12.6829C573.151 14.4126 573.812 16.077 575 17.3358C575.782 18.1367 576.764 18.7148 577.845 19.0103C578.925 19.3058 580.065 19.3081 581.147 19.0169L581.958 18.8368L583.461 18.1914C584.164 17.7952 584.753 17.227 585.175 16.5403C585.553 16.1491 585.827 15.6691 585.971 15.1444C586.348 14.3802 586.529 13.5343 586.497 12.6829C586.433 11.5567 586.131 10.4569 585.611 9.45579Z" fill="#C8EFFD"/>
<path d="M589.728 36.1882C585.761 36.1882 585.746 42.6122 589.728 42.6122C593.711 42.6122 593.696 36.1882 589.728 36.1882Z" fill="#C8EFFD"/>
<path d="M617.562 12.2928C616.745 11.8033 615.81 11.5448 614.857 11.5448C613.904 11.5448 612.969 11.8033 612.152 12.2928L611.896 12.4278C611.118 12.9353 610.479 13.6286 610.036 14.4449C609.593 15.2613 609.362 16.175 609.362 17.1033C609.362 18.0316 609.593 18.9453 610.036 19.7617C610.479 20.578 611.118 21.2713 611.896 21.7788L612.152 21.9139C612.969 22.4033 613.904 22.6618 614.857 22.6618C615.81 22.6618 616.745 22.4033 617.562 21.9139C618.372 21.3986 619.039 20.6877 619.501 19.8468C619.963 19.006 620.205 18.0624 620.205 17.1033C620.205 16.1442 619.963 15.2006 619.501 14.3598C619.039 13.5189 618.372 12.808 617.562 12.2928Z" fill="#C8EFFD"/>
<path d="M661.523 12.3829C657.855 12.3829 657.855 18.3867 661.523 18.3867C665.19 18.3867 665.205 12.3829 661.523 12.3829Z" fill="#C8EFFD"/>
<path d="M721.353 93.3444C714.064 93.3444 714.079 81.5469 721.353 81.5469C728.627 81.5469 728.657 93.3444 721.353 93.3444Z" fill="#C8EFFD"/>
<path d="M733.332 63.3251C725.817 63.3251 725.817 51.3175 733.332 51.3175C740.846 51.3175 740.786 63.3251 733.332 63.3251Z" fill="#C8EFFD"/>
<path d="M775.879 55.3702C775.585 54.8617 775.192 54.4175 774.722 54.0643C774.103 53.604 773.389 53.2862 772.633 53.1338C772.223 53.0222 771.795 52.994 771.374 53.0507C770.954 53.1074 770.548 53.2479 770.183 53.464L769.537 53.9893C769.14 54.4108 768.861 54.9281 768.725 55.4903C768.415 56.1098 768.255 56.7937 768.259 57.4865C768.265 58.1404 768.413 58.7853 768.693 59.3763C768.973 59.9673 769.379 60.4902 769.882 60.9087C770.161 61.1309 770.452 61.3363 770.754 61.5241C771.323 61.867 771.976 62.0482 772.64 62.0482C773.305 62.0482 773.957 61.867 774.527 61.5241C775.084 61.1802 775.545 60.6997 775.864 60.1282C776.204 59.5236 776.381 58.8406 776.375 58.1469C776.39 57.9521 776.39 57.7564 776.375 57.5616C776.408 56.8 776.237 56.0435 775.879 55.3702Z" fill="#C8EFFD"/>
<path d="M795.718 145.773C789.586 145.773 789.571 155.709 795.718 155.709C801.865 155.709 801.865 145.773 795.718 145.773Z" fill="#C8EFFD"/>
<path d="M776.06 144.602C772.873 144.602 772.858 149.765 776.06 149.765C779.261 149.765 779.246 144.602 776.06 144.602Z" fill="#C8EFFD"/>
<path d="M737.119 237.511C736.749 236.828 736.202 236.257 735.534 235.859C734.865 235.461 734.102 235.251 733.324 235.251C732.547 235.251 731.783 235.461 731.115 235.859C730.447 236.257 729.899 236.828 729.529 237.511C729.135 238.218 728.927 239.013 728.927 239.823C728.927 240.632 729.135 241.427 729.529 242.134L729.935 242.779C730.264 243.391 730.753 243.902 731.35 244.258C731.947 244.615 732.629 244.803 733.324 244.803C734.02 244.803 734.702 244.615 735.299 244.258C735.895 243.902 736.384 243.391 736.713 242.779L737.119 242.134C737.514 241.427 737.721 240.632 737.721 239.823C737.721 239.013 737.514 238.218 737.119 237.511Z" fill="#C8EFFD"/>
<path d="M766.651 231.282C761.602 231.282 761.602 239.462 766.651 239.462C771.701 239.462 771.716 231.282 766.651 231.282Z" fill="#C8EFFD"/>
<path d="M704.897 302.172C704.922 303.07 704.711 303.959 704.283 304.749C703.856 305.54 703.228 306.204 702.462 306.675L701.801 307.005C700.998 307.496 700.075 307.756 699.133 307.756C698.192 307.756 697.268 307.496 696.465 307.005C695.653 306.502 694.989 305.792 694.542 304.949C694.092 304.119 693.855 303.191 693.85 302.247C693.848 301.298 694.087 300.364 694.544 299.531C695.001 298.699 695.662 297.997 696.465 297.489C697.268 296.998 698.192 296.738 699.133 296.738C700.075 296.738 700.998 296.998 701.801 297.489L702.462 297.834L702.657 297.939C703.343 298.414 703.905 299.046 704.295 299.783C704.684 300.519 704.891 301.339 704.897 302.172Z" fill="#C8EFFD"/>
</svg>
