<svg width="800" height="360" viewBox="0 0 800 360" fill="none" xmlns="http://www.w3.org/2000/svg">
<path opacity="0.2" d="M729.665 37.9741C740.366 34.3718 751.232 30.7695 762.413 27.9928C774.241 25.0659 788.128 22.6494 799.881 17.5762V0H778.404C767.989 12.2778 729.049 19.5124 719.054 25.5162C705.228 33.8315 700.809 47.28 682.443 45.9292C668.03 44.8635 661.523 39.2049 659.088 25.7714C657.465 16.6906 653.663 9.35096 651.288 0.720474C651.288 0.480322 651.183 0.240153 651.123 0H621.305C622.992 2.0788 624.942 3.93041 627.106 5.50852C631.96 8.9457 638.528 10.6718 643.127 14.5142C653.407 22.9946 650.191 32.5257 637.566 37.0285C626.37 41.0211 619.727 42.6121 611.085 50.6272C602.984 58.132 596.146 66.102 584.033 66.7924C569.8 67.603 556.289 65.6067 544.085 58.5522C534.767 53.1938 526.546 45.554 517.559 39.5652C508.165 33.3212 504.784 27.7076 510.194 17.321C514.162 9.68116 523.63 6.30402 532.137 3.4372C534.316 2.70173 537.653 1.54598 541.154 0.0450268H400.031V18.1766C404.209 16.0302 408.327 5.70363 411.558 5.4935C423.957 4.65296 437.108 9.27589 449.507 9.89128C460.298 10.4316 502.665 11.9176 489.139 32.0003C482.736 41.5164 461.335 36.1129 451.851 34.8972C436.236 32.8859 427.955 31.5801 414.639 38.9647C410.656 41.1711 387.587 24.4956 380.809 24.3905C387.316 22.8789 393.689 20.8409 399.865 18.2966V0.675447H378.404C367.974 12.9382 329.048 20.1878 319.039 26.1917C305.227 34.5069 300.808 47.9555 282.428 46.6046C268.03 45.5539 261.507 39.8803 259.088 26.4468C257.464 17.4411 253.662 10.0264 251.302 1.4109C251.302 1.17075 251.182 0.930578 251.122 0.690426H221.289C222.977 2.769 224.927 4.62058 227.09 6.19895C231.945 9.62112 238.513 11.3622 243.127 15.2047C253.391 23.6851 250.16 33.2161 237.551 37.719C226.354 41.7115 219.711 43.3025 211.054 51.3176C202.969 58.8224 196.115 66.7775 184.002 67.4679C169.769 68.2784 156.258 66.2821 144.039 59.2426C134.736 53.8842 126.515 46.2444 117.513 40.2556C108.135 34.0116 104.753 28.398 110.164 18.0114C114.131 10.3716 123.6 6.97943 132.106 4.12762C134.286 3.39216 137.622 2.23641 141.124 0.735453H0.00019338V10.4016C4.19332 8.24022 8.31131 6.39409 11.5426 6.16894C23.9416 5.32841 37.0921 9.95134 49.4912 10.5667C60.267 11.1071 102.649 12.608 89.123 32.6908C82.7206 42.2068 61.3191 36.8034 51.8357 35.5726C36.2204 33.5613 27.1879 35.9779 13.8721 43.3626C9.63387 45.7041 4.85461 48.9161 0.00019338 51.1825V66.9275C13.1056 58.4771 27.8342 53.1938 45.809 55.7454C59.1549 57.6216 67.4961 61.7492 81.3229 60.0532C91.4375 58.8074 104.453 57.5466 114.147 61.2689C127.417 66.3572 135.488 79.4005 142.702 89.8771C149.104 99.108 151.043 118.395 137.742 124.504C125.418 130.223 108.946 117.285 98.2757 113.517C81.1576 107.513 60.9133 113.412 43.8252 115.964C30.0284 118.035 25.159 123.468 13.5865 128.947C9.30011 130.961 4.65725 132.109 -0.0749512 132.324V153.608C5.5683 152.611 11.0829 150.99 16.3669 148.775C29.9984 143.131 43.0286 137.667 57.141 133.15C66.6695 130.148 83.472 126.816 90.3103 136.031C99.463 148.324 83.5772 159.701 74.8603 167.071C58.9745 180.58 62.7468 194.434 57.0658 211.559C51.3848 228.685 35.7395 238.817 17.96 246.307C12.2195 248.834 6.14623 250.527 -0.0749512 251.335V272.423C6.68816 268.28 13.7969 264.033 20.7254 260.415C30.0134 255.522 48.4391 246.832 58.9896 253.181C63.1376 255.687 63.8139 262.607 66.3839 266.044C70.021 270.892 75.9424 272.768 80.9772 276.1C97.7798 287.162 97.915 308.656 87.6952 323.696C79.6246 335.583 57.9826 344.709 49.2206 328.289C44.0356 318.592 48.905 303.343 33.2146 301.497C18.6664 299.8 12.0385 313.879 -0.0749512 317.287V359.493H94.3531C95.774 352.527 98.371 345.853 102.033 339.756C110.044 325.992 119.903 309.076 118.234 292.971C116.972 280.798 103.356 262.277 124.712 258.344C131.776 257.053 138.389 259.725 145.061 256.168C153.012 251.935 153.613 243.62 156.363 236.55C163.457 218.239 184.528 208.122 198.7 228.07C209.627 243.455 190.84 258.704 178.772 268.31C170.476 274.9 158.768 280.964 157.566 291.8C156.408 302.307 166.448 308.626 173.993 315.065C183.01 322.735 194.147 330.93 197.934 341.962C199.559 347.636 200.019 353.578 199.287 359.433H238.633C227.797 333.917 184.528 318.908 192.043 289.639C196.01 274.074 208.304 268.025 220.598 258.434C232.065 249.519 247.139 232.768 265.385 239.252C289.296 247.732 263.882 269.841 253.542 276.476C245.531 281.639 234.846 285.677 231.569 294.487C228.037 304.048 234.68 312.348 240.737 319.583C250.22 330.96 276.191 340.822 277.168 356.446C277.244 357.448 277.209 358.455 277.062 359.448H301.109C292.092 347.441 281.571 336.064 277.618 321.759C272.208 301.902 283.209 280.588 297.156 265.414C306.069 255.778 329.98 236.055 344.934 246.667C359.888 257.278 350.179 278.682 346.437 291.395C342.424 304.904 337.991 319.223 351.817 328.784C363.209 336.649 376.24 346.585 381.109 359.448H399.835V336.844L398.603 336.424C389.135 332.571 380.954 326.118 375.007 317.812C364.171 301.572 370.964 280.138 372.873 262.877C374.181 251.08 373.294 235.545 357.934 232.393C346.302 230.021 332.64 235.575 322.841 226.719C312.576 217.458 322.751 203.169 334.414 200.302C350.946 196.22 368.124 199.372 384.265 205.36C388.041 206.967 391.428 209.362 394.199 212.385C404.72 225.008 419.298 249.428 424.874 249.909C442.909 251.41 448.5 246.171 459.05 252.535C463.198 255.027 463.89 261.946 466.445 265.384C470.082 270.247 476.003 272.123 481.053 275.44C497.84 286.517 497.976 308.011 487.756 323.035C479.685 334.923 457.878 344.049 449.281 327.643C444.893 319.223 446.486 319.988 430.51 317.677C416.007 315.576 412.084 333.347 400.001 336.754V358.833H494.324C495.763 351.87 498.365 345.198 502.019 339.095C510.029 325.347 519.903 308.431 518.22 292.371C516.957 280.198 503.341 261.676 524.698 257.744C531.761 256.453 538.374 259.14 545.047 255.582C552.997 251.335 553.599 243.034 556.349 235.965C563.443 217.638 584.529 207.522 598.686 227.47C609.612 242.854 590.826 258.119 578.757 267.71C570.476 274.299 558.754 280.363 557.551 291.215C556.394 301.722 566.433 308.026 573.978 314.48C575.616 315.876 577.345 317.302 579.088 318.758C579.081 318.698 579.081 318.637 579.088 318.577C579.118 317.754 579.334 316.947 579.72 316.218C580.106 315.489 580.651 314.857 581.316 314.368C581.98 313.879 582.747 313.546 583.558 313.393C584.369 313.241 585.204 313.274 586.001 313.489L586.753 313.699C588.056 314.043 589.176 314.877 589.879 316.026C590.324 316.805 590.572 317.681 590.6 318.577C590.634 319.257 590.478 319.932 590.149 320.529C590.029 320.958 589.795 321.346 589.473 321.654C589.09 322.209 588.573 322.658 587.97 322.96L586.723 323.471L585.971 323.666C585.628 323.763 585.275 323.824 584.919 323.846C590.54 328.979 595.605 334.653 597.904 341.377C599.537 347.044 599.998 352.983 599.257 358.833H638.603C627.767 333.317 584.498 318.307 592.013 289.054C595.996 273.489 608.275 267.44 620.568 257.849C632.036 248.918 647.11 232.183 665.355 238.652C683.39 245.031 673.381 259.125 662.981 268.536C663.621 268.929 664.15 269.478 664.518 270.132C664.886 270.786 665.081 271.523 665.085 272.273C665.086 273.058 664.874 273.828 664.472 274.502C664.07 275.176 663.492 275.728 662.8 276.1L662.169 276.386C661.412 276.819 660.554 277.047 659.682 277.047C658.809 277.047 657.952 276.819 657.194 276.386C656.441 275.973 655.816 275.36 655.391 274.614L653.512 275.875C645.502 281.054 634.816 285.076 631.54 293.887C628.008 303.433 634.651 311.733 640.707 318.968C650.191 330.345 676.176 340.206 677.138 355.831C677.204 356.832 677.174 357.838 677.048 358.833H701.094C692.077 346.825 681.557 335.448 677.604 321.144C672.193 301.286 683.195 279.988 697.142 264.798C706.039 255.162 729.965 235.44 744.919 246.051C759.873 256.663 750.165 278.067 746.422 290.78C742.425 304.288 737.961 318.622 751.803 328.184C763.195 336.049 776.225 345.97 781.095 358.833H799.821V336.169L798.589 335.763C789.123 331.899 780.943 325.442 774.993 317.136C764.157 300.896 770.95 279.478 772.859 262.202C774.181 250.404 773.294 234.869 757.83 231.717C746.212 229.346 732.55 234.899 722.751 226.044C712.487 216.783 722.661 202.509 734.324 199.627C750.856 195.544 767.072 207.132 784.191 204.685C789.992 203.845 795.027 202.689 799.746 202.163V192.092C793.297 193.053 786.709 192.388 780.584 190.156C764.653 184.287 766.156 167.566 754.253 158.861C744.228 151.536 734.144 152.767 726.013 142.35C718.829 133.15 708.489 113.022 710.172 101.825C712.201 88.3161 727.305 93.5845 733.753 102.185C746.558 119.311 745.551 139.604 771.792 147.424C781.125 150.2 790.368 150.621 799.746 151.236V135.551C796.825 136.51 793.682 136.567 790.728 135.716C775.459 131.889 772.002 116.879 766.141 106.147C760.279 95.4156 754.734 84.1885 744.108 76.8338C733.001 69.209 721.895 72.5411 710.262 67.4229C687.854 57.6516 718.243 41.8316 729.665 37.9741ZM691.731 54.7698C698.72 54.7698 698.705 65.2765 691.731 65.2765C684.758 65.2765 684.758 54.7698 691.731 54.7698ZM680.49 81.1265C687.313 81.1265 687.298 91.3481 680.49 91.3481C673.681 91.3481 673.726 81.1265 680.49 81.1265ZM329.604 38.6496C340.305 35.0473 351.171 31.43 362.353 28.6682L365.93 27.7976C386.82 42.477 427.835 52.4583 445.794 55.0099C459.125 56.8861 467.482 61.0138 481.293 59.3177C491.408 58.0719 504.423 56.8111 514.117 60.5335C527.388 65.6367 535.473 78.665 542.747 89.1417C549.165 98.3725 551.074 117.66 537.788 123.784C525.464 129.487 508.992 116.564 498.321 112.782C481.203 106.778 460.959 112.677 443.871 115.243C430.074 117.3 425.205 122.748 413.632 128.211C409.454 130.193 404.705 135.926 399.986 136.106L399.82 136.767V136.227C396.898 137.178 393.758 137.235 390.803 136.392C375.533 132.564 372.062 117.555 366.215 106.823C360.369 96.0911 354.688 84.8639 344.047 77.5693C332.941 69.9294 321.849 73.2766 310.217 68.1583C287.838 58.3121 318.287 42.492 329.649 38.6496H329.604ZM219.245 186.884C214.301 204.34 175.856 203.544 160.301 198.726C150.652 195.724 139.395 189.345 128.845 191.747C116.386 194.569 113.47 205.045 119.226 214.471C125.238 224.348 137.021 233.984 123.45 243.875C115.935 249.338 104.558 251.02 94.278 249.413C78.6026 246.967 65.5122 236.865 72.7563 220.775C76.1378 213.271 83.0662 208.272 88.0108 201.638C94.4433 193.008 96.5023 183.326 99.7787 173.6C104.047 160.872 106.211 148.624 120.369 142.756C130.333 138.628 136.901 140.309 143.153 148.76C149.164 156.82 150.126 169.563 161.684 172.925C173.572 176.392 183.416 168.182 195.364 167.837C208.409 167.506 223.363 172.294 219.245 186.884ZM198.31 157.27C194.592 155.917 191.26 153.681 188.601 150.756C184.528 146.553 181.522 141.375 178.276 136.872C168.747 123.664 152.726 98.4476 177.314 90.2073C189.848 86.0047 200.729 86.0497 210.453 76.5186C220.553 66.6273 226.835 53.434 242.3 48.6909C260.425 43.1074 272.208 50.8373 275.169 66.8675C278.881 87.0553 258.892 95.4757 251.979 112.812C245.065 130.148 252.129 145.217 229.18 155.003C220.388 158.771 207.883 160.557 198.31 157.27ZM328.327 186.704C320.482 189.555 316.424 191.537 311.644 198.711C305.047 208.528 301.124 222.591 286.756 225.308C275.89 227.364 267.083 220.205 256.052 221.181C244.539 222.201 232.802 226.254 228.458 213.12C223.649 198.636 236.093 191.522 242.345 180.505C248.357 169.998 243.968 162.613 254.489 154.268C265.52 145.502 264.723 128.106 276.07 120.467C290.814 110.545 298.78 122.943 299.11 134.861C299.396 144.482 293.97 158.155 301.064 166.591C309.721 176.872 328.116 168.092 336.067 176.782C341.417 182.561 333.061 184.993 328.327 186.704ZM461.154 248.768C460.501 249.138 459.763 249.332 459.013 249.332C458.262 249.332 457.524 249.138 456.871 248.768L456.751 248.693C456.13 248.353 455.613 247.852 455.252 247.243C454.892 246.635 454.701 245.94 454.701 245.233C454.701 244.526 454.892 243.832 455.252 243.223C455.613 242.615 456.13 242.114 456.751 241.774L456.871 241.699C457.523 241.326 458.261 241.13 459.013 241.13C459.764 241.13 460.502 241.326 461.154 241.699C461.786 242.049 462.313 242.559 462.683 243.179C463.052 243.798 463.251 244.505 463.258 245.226C463.249 245.949 463.05 246.656 462.68 247.278C462.311 247.899 461.785 248.413 461.154 248.768ZM457.157 210.824C451.43 228.1 452.843 235.154 430.54 230.757C420.801 228.835 407.996 208.603 400.136 200.302C399.46 199.597 398.828 198.981 398.242 198.471C396.965 197.931 395.808 197.42 394.741 196.97C388.864 194.359 385.723 192.707 380.688 190.876C364.772 184.902 366.275 168.242 354.357 159.536C344.333 152.212 334.248 153.427 326.102 143.026C318.934 133.825 308.594 113.697 310.277 102.5C312.306 88.9916 327.41 94.2449 333.858 102.86C346.662 119.986 345.655 140.279 371.896 148.099C381.229 150.876 390.472 151.281 399.85 151.912V151.026C406.057 150.17 413.722 149.225 416.458 148.024L420.485 146.358C420.265 146.373 420.044 146.373 419.824 146.358C418.804 146.358 417.825 145.953 417.104 145.233C416.382 144.512 415.977 143.535 415.977 142.516C415.977 141.496 416.382 140.519 417.104 139.799C417.825 139.078 418.804 138.673 419.824 138.673C420.628 138.68 421.409 138.934 422.062 139.402C422.715 139.87 423.207 140.528 423.47 141.286C423.734 142.044 423.756 142.865 423.533 143.636C423.311 144.407 422.855 145.09 422.229 145.592C433.801 140.804 445.103 136.242 457.217 132.354C466.76 129.352 483.548 126.035 490.386 135.236C499.539 147.544 483.653 158.921 474.936 166.291C459.065 179.799 462.838 193.698 457.157 210.824ZM619.261 186.223C614.361 203.679 575.872 202.914 560.256 198.051C550.608 195.049 539.351 188.685 528.8 191.071C516.341 193.908 513.426 204.385 519.182 213.796C525.193 223.687 536.976 233.308 523.405 243.2C515.89 248.663 504.513 250.359 494.233 248.753C478.558 246.307 465.468 236.19 472.712 220.1C476.093 212.595 483.022 207.597 487.966 200.963C494.399 192.332 496.473 182.666 499.734 172.94C504.002 160.197 506.182 147.949 520.324 142.08C530.288 137.953 536.856 139.634 543.108 148.084C549.12 156.129 550.082 168.872 561.639 172.234C573.542 175.702 583.371 167.491 595.319 167.146C608.35 166.891 623.379 171.619 619.261 186.223ZM598.325 156.609C594.614 155.245 591.284 153.011 588.616 150.095C584.589 145.878 581.478 140.639 578.291 136.212C568.763 123.003 552.742 97.8021 577.345 89.5469C589.864 85.3442 600.745 85.3892 610.409 75.8732C620.508 65.9669 626.79 52.7885 642.255 48.0305C660.381 42.462 672.178 50.1769 675.124 66.2221C678.836 86.4099 658.863 94.8152 651.934 112.151C645.006 129.487 652.084 144.572 629.135 154.358C620.373 158.095 607.899 159.882 598.325 156.609ZM736.082 176.122C741.433 181.976 733.076 184.392 728.342 186.118C720.497 188.955 716.454 190.951 711.66 198.051C705.062 207.867 701.14 221.946 686.772 224.663C675.906 226.704 667.099 219.544 656.067 220.535C644.555 221.556 632.817 225.593 628.474 212.46C623.679 197.976 636.124 190.876 642.361 179.844C648.372 169.338 643.984 161.953 654.504 153.608C665.536 144.842 664.739 127.446 676.086 119.806C690.815 109.885 698.795 122.283 699.126 134.2C699.411 143.836 693.986 157.51 701.079 165.93C709.736 176.137 728.147 167.356 736.097 176.047L736.082 176.122Z" fill="#2D8DAA"/>
</svg>
