<svg width="316" height="42" viewBox="0 0 316 42" fill="none" xmlns="http://www.w3.org/2000/svg">
<path d="M295.864 40.4348L159.592 39.694L29.1143 40.4557C23.5583 40.545 18.0439 39.5355 12.9262 37.4922C8.2268 35.4575 5.186 32.5357 5.186 29.1444L2.05674 13.9409C1.06157 10.6957 1.80242 6.46961 8.52536 3.72526C15.2483 0.980915 28.6942 1.63831 34.8753 1.63831L163.263 2.1496L282.363 1.61745C298.076 1.9931 307.74 3.99657 311.533 6.99136C314.375 9.23483 314.386 11.4783 314.375 15.0261L311.312 31.3461C311.312 36.9392 306.502 39.694 295.864 40.4348Z" fill="white" stroke="#135617" stroke-width="3" stroke-miterlimit="10"/>
<path d="M10.8032 33.4329C9.69744 33.652 7.48595 27.172 6.51289 24.0416C4.36774 17.0085 3.10719 12.6468 5.40714 9.32854C6.51289 7.79463 8.12728 6.75116 12.108 5.51985C18.4035 3.50545 25.0573 2.67935 31.6907 3.08856C53.9826 5.48856 76.584 3.08853 98.9754 4.29897C100.623 4.38245 121.798 4.29897 164.137 4.29897C211.12 4.20505 220.53 4.12159 227.684 4.04854C261.454 3.68333 278.349 3.50592 278.36 3.28679C278.471 0.782444 118.359 12.0833 47.7904 12.3546C44.252 12.3546 15.7238 12.4485 11.5662 23.572C10.0845 27.6311 11.8205 33.2242 10.8032 33.4329Z" fill="#E4EFEE"/>
<path d="M287.77 34.4765C287.958 35.9374 301.039 38.1391 306.004 32.1913C307.22 30.7408 307.663 29.1547 308.426 26.3582C309.631 21.9547 309.951 16.7165 308.956 16.466C307.784 16.1843 307.077 23.3739 300.918 28.6434C294.759 33.913 287.704 33.36 287.77 34.4765Z" fill="#E4EFEE"/>
</svg>
