<svg width="258" height="278" viewBox="0 0 258 278" fill="none" xmlns="http://www.w3.org/2000/svg">
<path d="M152.745 160.304C150.636 186.414 145.958 212.253 138.78 237.445C136.289 246.861 133.251 256.123 129.683 265.184C127.812 269.799 122.123 280.105 115.717 277.618C111.002 275.773 110.207 270.184 109.721 265.954C108.111 249.006 107.384 231.985 107.542 214.962C107.363 195.785 107.132 176.122 110.105 157.099C90.1173 172.25 65.7991 184.889 45.427 199.528C34.8695 207.219 23.7737 214.91 10.9612 216.961C7.52738 217.551 3.40178 217.423 1.32615 214.628C-1.23637 211.039 0.249823 205.425 2.94047 201.81C26.6438 170.482 55.1134 146.408 85.7867 121.848C64.0769 107.883 43.5119 92.2122 24.2863 74.9839C18.4694 69.8565 12.6268 64.2933 9.60303 57.038C8.74988 55.3709 8.49651 53.4607 8.88552 51.6286C9.65428 49.0649 14.3437 44.4246 17.0343 44.4502C19.725 44.4759 63.621 62.5499 123.533 88.0331C148.697 56.4227 165.43 33.9647 191.901 3.6875C193.011 2.26051 194.504 1.17787 196.204 0.565266C197.905 -0.0473382 199.745 -0.164801 201.51 0.226496C202.791 0.782887 203.886 1.69379 204.667 2.85196C205.448 4.01013 205.882 5.36738 205.918 6.76393C206.148 9.55836 179.652 80.1881 164.917 111.875C192.49 125.694 220.934 142.64 247.123 158.868C252.76 162.38 259.167 168.046 257.014 174.25C255.195 179.378 248.609 180.967 243.1 181.07C231.21 180.861 219.396 179.138 207.942 175.942C189.005 171.43 171.144 166.303 152.745 160.304Z" fill="#FDCD56"/>
</svg>
