<svg width="111" height="104" viewBox="0 0 111 104" fill="none" xmlns="http://www.w3.org/2000/svg">
<g clip-path="url(#clip0_55_475)">
<path d="M78.9281 68.2053C82.1537 75.9593 84.4414 84.0737 85.7421 92.3745C86.2959 96.024 86.3923 100.423 83.5029 102.695C82.1358 103.496 80.5895 103.938 79.0071 103.98C77.4246 104.022 75.8571 103.663 74.4495 102.936C69.6339 101.075 60.0027 92.9304 55.3797 88.1207C52.2495 84.8337 50.5641 81.8125 47.458 78.453C37.8503 86.5758 27.241 93.4237 15.8916 98.8277C13.0745 100.084 9.27015 100.93 7.29575 98.5376C6.46809 97.346 6.0845 95.9 6.21221 94.453C6.3326 89.2566 9.07749 84.5195 11.9187 80.1932C15.8916 74.1267 20.6109 67.9395 23.1632 61.1238C16.2227 58.1131 9.63374 54.3441 3.51547 49.8851C1.78185 48.6283 -0.0721421 46.9606 9.21823e-05 44.8096C0.0792617 44.0361 0.352737 43.2955 0.794931 42.6572C1.23712 42.0189 1.83353 41.5037 2.52826 41.16C3.91616 40.4729 5.41774 40.0469 6.95862 39.9032C17.7059 38.5009 28.5301 37.7744 39.3678 37.7279C44.1834 25.6433 48.999 13.3412 57.1856 3.31103C58.0762 2.06653 59.2371 1.0417 60.5806 0.314077C61.2541 -0.0449558 62.0186 -0.195298 62.7773 -0.117852C63.536 -0.0404063 64.2547 0.261326 64.8424 0.749105C65.4455 1.44672 65.882 2.27337 66.1185 3.16602C69.7468 15.0414 71.3744 27.4414 70.9341 39.8548C81.3537 40.6302 91.6394 42.6838 101.561 45.9696C103.969 46.5911 106.234 47.6745 108.231 49.16C109.22 49.9132 109.998 50.9093 110.491 52.0523C110.985 53.1953 111.177 54.4467 111.048 55.6857C110.446 59.5769 88.9446 66.4651 78.9281 68.2053Z" fill="#FDEEBD"/>
<path d="M101.85 54.7674C84.9958 53.8489 68.4301 53.4864 52.5867 53.6797C56.0058 39.1782 59.0155 24.1692 61.5919 8.7976C61.6347 8.545 61.5784 8.28553 61.4347 8.07373C61.2911 7.86194 61.0713 7.71426 60.8214 7.66165C60.7091 7.63297 60.5922 7.62715 60.4776 7.64461C60.3631 7.66207 60.2532 7.70245 60.1544 7.76329C60.0556 7.82412 59.97 7.90417 59.9026 7.9988C59.8352 8.09342 59.7874 8.20069 59.762 8.31419C55.8854 23.2749 52.5385 38.284 49.8659 52.9305C35.6116 49.9577 20.6351 47.3958 5.3214 45.3414C5.07035 45.3132 4.81806 45.3827 4.6165 45.5355C4.41494 45.6884 4.2795 45.913 4.23793 46.1631C4.20152 46.3929 4.2533 46.628 4.38291 46.8209C4.51252 47.0138 4.71025 47.1502 4.93614 47.2024C19.6238 50.5861 34.3115 53.3655 48.6138 55.5166C43.7982 60.3504 38.7899 65.1843 34.0465 70.0181L32.5778 71.4924C31.0368 73.0634 29.3995 74.6344 27.7622 76.1812C23.6278 79.9255 19.8104 84.0081 16.3492 88.3867C16.2372 88.5737 16.1897 88.7925 16.2142 89.0092C16.2387 89.226 16.3338 89.4286 16.4847 89.5856C16.6356 89.7426 16.8339 89.8452 17.0489 89.8775C17.2638 89.9098 17.4834 89.8701 17.6735 89.7644C22.3471 86.1382 26.6829 82.0934 30.6275 77.6798L34.6485 73.571C41.0292 67.1903 46.1097 61.9214 50.6605 56.9909C52.8757 60.1571 55.2112 63.2991 57.4746 66.3202C59.7379 69.3414 61.8086 72.145 63.9034 75.1178C65.9982 78.0906 68.3338 81.5226 70.3322 84.5679C70.9342 85.4622 71.488 86.3806 72.0659 87.2991C73.3529 89.5701 74.8611 91.7075 76.5685 93.6798C76.6441 93.7646 76.737 93.8323 76.8408 93.8781C76.9446 93.924 77.057 93.947 77.1704 93.9456C77.3563 93.9426 77.5385 93.8928 77.7001 93.8006C77.8702 93.7079 78.0008 93.5561 78.0673 93.3737C78.1338 93.1912 78.1317 92.9906 78.0613 92.8096C76.9783 90.1123 75.5886 87.5495 73.9199 85.1722C73.5105 84.5196 73.0772 83.867 72.6919 83.2145C70.2841 79.4924 68.2375 76.1813 66.1427 73.0635C62.3624 67.4079 58.4618 61.5831 54.1036 56.2658C69.6581 56.8942 85.7182 56.9667 101.899 56.4834C102.133 56.4772 102.356 56.3811 102.522 56.2147C102.688 56.0483 102.783 55.8244 102.79 55.5891C102.747 55.3666 102.631 55.1648 102.461 55.0159C102.291 54.8669 102.076 54.7795 101.85 54.7674Z" fill="#0063BA"/>
</g>
<defs>
<clipPath id="clip0_55_475">
<rect width="111" height="104" fill="white"/>
</clipPath>
</defs>
</svg>
